<svg xmlns="http://www.w3.org/2000/svg" viewBox="0 0 64 64" fill="none" stroke="#067a7a" stroke-width="3" stroke-linecap="round" stroke-linejoin="round">
  <rect x="10" y="8" width="44" height="46" rx="6"/>
  <path d="M38 14v34M16 14h22v34H16M16 36h5"/>
  <rect x="23" y="31" width="8" height="9" rx="2"/>
  <path d="M21 42h12M27 42v6M24 48h6"/>
  <rect x="35" y="28" width="2.5" height="8" rx="1.2" fill="#067a7a" stroke="none"/>
  <rect x="42" y="30" width="7" height="9" rx="1.5"/>
  <path d="M44 33h3M44 36h3M42.5 24.5c1.8-1.5 5.2-1.5 7 0M44 27c1-.8 3-.8 4 0"/>
  <circle cx="46" cy="29.3" r=".8" fill="#067a7a" stroke="none"/>
</svg>
