<svg xmlns="http://www.w3.org/2000/svg" width="1152" height="1086" viewBox="0 0 1152 1086">
<style>svg{color:#46505a;background:#fff;font:10px sans-serif}text{fill:#46505a}.rule{fill:#f4f6f8}</style>
<defs><symbol id="icon-archive" viewBox="0 0 24 24"><g transform="scale(1.5)" fill="currentColor"><path d="M0 2a1 1 0 0 1 1-1h14a1 1 0 0 1 1 1v2a1 1 0 0 1-1 1v7.5a2.5 2.5 0 0 1-2.5 2.5h-9A2.5 2.5 0 0 1 1 12.5V5a1 1 0 0 1-1-1V2zm2 3v7.5A1.5 1.5 0 0 0 3.5 14h9a1.5 1.5 0 0 0 1.5-1.5V5H2zm13-3H1v2h14V2zM5 7.5a.5.5 0 0 1 .5-.5h5a.5.5 0 0 1 0 1h-5a.5.5 0 0 1-.5-.5z"/></g></symbol>
<symbol id="icon-arrow-clockwise" viewBox="0 0 24 24"><g transform="scale(1.5)" fill="currentColor"><path fill-rule="evenodd" d="M8 3a5 5 0 1 0 4.546 2.914.5.5 0 0 1 .908-.417A6 6 0 1 1 8 2v1z"/><path d="M8 4.466V.534a.25.25 0 0 1 .41-.192l2.36 1.966c.12.1.12.284 0 .384L8.41 4.658A.25.25 0 0 1 8 4.466z"/></g></symbol>
<symbol id="icon-arrow-counterclockwise" viewBox="0 0 24 24"><g transform="scale(1.5)" fill="currentColor"><path fill-rule="evenodd" d="M8 3a5 5 0 1 1-4.546 2.914.5.5 0 0 0-.908-.417A6 6 0 1 0 8 2v1z"/><path d="M8 4.466V.534a.25.25 0 0 0-.41-.192L5.23 2.308a.25.25 0 0 0 0 .384l2.36 1.966A.25.25 0 0 0 8 4.466z"/></g></symbol>
<symbol id="icon-arrow-down" viewBox="0 0 24 24"><g transform="scale(1.5)" fill="currentColor"><path fill-rule="evenodd" d="M8 1a.5.5 0 0 1 .5.5v11.793l3.146-3.147a.5.5 0 0 1 .708.708l-4 4a.5.5 0 0 1-.708 0l-4-4a.5.5 0 0 1 .708-.708L7.5 13.293V1.5A.5.5 0 0 1 8 1z"/></g></symbol>
<symbol id="icon-arrow-down-circle" viewBox="0 0 24 24"><g transform="scale(1.5)" fill="currentColor"><path fill-rule="evenodd" d="M1 8a7 7 0 1 0 14 0A7 7 0 0 0 1 8zm15 0A8 8 0 1 1 0 8a8 8 0 0 1 16 0zM8.5 4.5a.5.5 0 0 0-1 0v5.793L5.354 8.146a.5.5 0 1 0-.708.708l3 3a.5.5 0 0 0 .708 0l3-3a.5.5 0 0 0-.708-.708L8.5 10.293V4.5z"/></g></symbol>
<symbol id="icon-arrow-left" viewBox="0 0 24 24"><g transform="scale(1.5)" fill="currentColor"><path fill-rule="evenodd" d="M15 8a.5.5 0 0 0-.5-.5H2.707l3.147-3.146a.5.5 0 1 0-.708-.708l-4 4a.5.5 0 0 0 0 .708l4 4a.5.5 0 0 0 .708-.708L2.707 8.5H14.5A.5.5 0 0 0 15 8z"/></g></symbol>
<symbol id="icon-arrow-repeat" viewBox="0 0 24 24"><g transform="scale(1.5)" fill="currentColor"><path d="M11.534 7h3.932a.25.25 0 0 1 .192.41l-1.966 2.36a.25.25 0 0 1-.384 0l-1.966-2.36a.25.25 0 0 1 .192-.41zm-11 2h3.932a.25.25 0 0 0 .192-.41L2.692 6.23a.25.25 0 0 0-.384 0L.342 8.59A.25.25 0 0 0 .534 9z"/><path fill-rule="evenodd" d="M8 3c-1.552 0-2.94.707-3.857 1.818a.5.5 0 1 1-.771-.636A6.002 6.002 0 0 1 13.917 7H12.9A5.002 5.002 0 0 0 8 3zM3.1 9a5.002 5.002 0 0 0 8.757 2.182.5.5 0 1 1 .771.636A6.002 6.002 0 0 1 2.083 9H3.1z"/></g></symbol>
<symbol id="icon-arrow-right" viewBox="0 0 24 24"><g transform="scale(1.5)" fill="currentColor"><path fill-rule="evenodd" d="M1 8a.5.5 0 0 1 .5-.5h11.793l-3.147-3.146a.5.5 0 0 1 .708-.708l4 4a.5.5 0 0 1 0 .708l-4 4a.5.5 0 0 1-.708-.708L13.293 8.5H1.5A.5.5 0 0 1 1 8z"/></g></symbol>
<symbol id="icon-arrow-up-circle" viewBox="0 0 24 24"><g transform="scale(1.5)" fill="currentColor"><path fill-rule="evenodd" d="M1 8a7 7 0 1 0 14 0A7 7 0 0 0 1 8zm15 0A8 8 0 1 1 0 8a8 8 0 0 1 16 0zm-7.5 3.5a.5.5 0 0 1-1 0V5.707L5.354 7.854a.5.5 0 1 1-.708-.708l3-3a.5.5 0 0 1 .708 0l3 3a.5.5 0 0 1-.708.708L8.5 5.707V11.5z"/></g></symbol>
<symbol id="icon-arrows-collapse" viewBox="0 0 24 24"><g transform="scale(1.5)" fill="currentColor"><path fill-rule="evenodd" d="M1 8a.5.5 0 0 1 .5-.5h13a.5.5 0 0 1 0 1h-13A.5.5 0 0 1 1 8zm7-8a.5.5 0 0 1 .5.5v3.793l1.146-1.147a.5.5 0 0 1 .708.708l-2 2a.5.5 0 0 1-.708 0l-2-2a.5.5 0 1 1 .708-.708L7.5 4.293V.5A.5.5 0 0 1 8 0zm-.5 11.707-1.146 1.147a.5.5 0 0 1-.708-.708l2-2a.5.5 0 0 1 .708 0l2 2a.5.5 0 0 1-.708.708L8.5 11.707V15.5a.5.5 0 0 1-1 0v-3.793z"/></g></symbol>
<symbol id="icon-arrows-expand" viewBox="0 0 24 24"><g transform="scale(1.5)" fill="currentColor"><path fill-rule="evenodd" d="M1 8a.5.5 0 0 1 .5-.5h13a.5.5 0 0 1 0 1h-13A.5.5 0 0 1 1 8zM7.646.146a.5.5 0 0 1 .708 0l2 2a.5.5 0 0 1-.708.708L8.5 1.707V5.5a.5.5 0 0 1-1 0V1.707L6.354 2.854a.5.5 0 1 1-.708-.708l2-2zM8 10a.5.5 0 0 1 .5.5v3.793l1.146-1.147a.5.5 0 0 1 .708.708l-2 2a.5.5 0 0 1-.708 0l-2-2a.5.5 0 0 1 .708-.708L7.5 14.293V10.5A.5.5 0 0 1 8 10z"/></g></symbol>
<symbol id="icon-bag" viewBox="0 0 24 24"><g transform="scale(1.5)" fill="currentColor"><path d="M8 1a2.5 2.5 0 0 1 2.5 2.5V4h-5v-.5A2.5 2.5 0 0 1 8 1zm3.5 3v-.5a3.5 3.5 0 1 0-7 0V4H1v10a2 2 0 0 0 2 2h10a2 2 0 0 0 2-2V4h-3.5zM2 5h12v9a1 1 0 0 1-1 1H3a1 1 0 0 1-1-1V5z"/></g></symbol>
<symbol id="icon-bell" viewBox="0 0 24 24"><g transform="scale(1.5)" fill="currentColor"><path d="M8 16a2 2 0 0 0 2-2H6a2 2 0 0 0 2 2zM8 1.918l-.797.161A4.002 4.002 0 0 0 4 6c0 .628-.134 2.197-.459 3.742-.16.767-.376 1.566-.663 2.258h10.244c-.287-.692-.502-1.49-.663-2.258C12.134 8.197 12 6.628 12 6a4.002 4.002 0 0 0-3.203-3.92L8 1.917zM14.22 12c.223.447.481.801.78 1H1c.299-.199.557-.553.78-1C2.68 10.2 3 6.88 3 6c0-2.42 1.72-4.44 4.005-4.901a1 1 0 1 1 1.99 0A5.002 5.002 0 0 1 13 6c0 .88.32 4.2 1.22 6z"/></g></symbol>
<symbol id="icon-bell-fill" viewBox="0 0 24 24"><g transform="scale(1.5)" fill="currentColor"><path d="M8 16a2 2 0 0 0 2-2H6a2 2 0 0 0 2 2zm.995-14.901a1 1 0 1 0-1.99 0A5.002 5.002 0 0 0 3 6c0 1.098-.5 6-2 7h14c-1.5-1-2-5.902-2-7 0-2.42-1.72-4.44-4.005-4.901z"/></g></symbol>
<symbol id="icon-book" viewBox="0 0 24 24"><g transform="scale(1.5)" fill="currentColor"><path d="M1 2.828c.885-.37 2.154-.769 3.388-.893 1.33-.134 2.458.063 3.112.752v9.746c-.935-.53-2.12-.603-3.213-.493-1.18.12-2.37.461-3.287.811V2.828zm7.5-.141c.654-.689 1.782-.886 3.112-.752 1.234.124 2.503.523 3.388.893v9.923c-.918-.35-2.107-.692-3.287-.81-1.094-.111-2.278-.039-3.213.492V2.687zM8 1.783C7.015.936 5.587.81 4.287.94c-1.514.153-3.042.672-3.994 1.105A.5.5 0 0 0 0 2.5v11a.5.5 0 0 0 .707.455c.882-.4 2.303-.881 3.68-1.02 1.409-.142 2.59.087 3.223.877a.5.5 0 0 0 .78 0c.633-.79 1.814-1.019 3.222-.877 1.378.139 2.8.62 3.681 1.02A.5.5 0 0 0 16 13.5v-11a.5.5 0 0 0-.293-.455c-.952-.433-2.48-.952-3.994-1.105C10.413.809 8.985.936 8 1.783z"/></g></symbol>
<symbol id="icon-box-arrow-right" viewBox="0 0 24 24"><g transform="scale(1.5)" fill="currentColor"><path fill-rule="evenodd" d="M10 12.5a.5.5 0 0 1-.5.5h-8a.5.5 0 0 1-.5-.5v-9a.5.5 0 0 1 .5-.5h8a.5.5 0 0 1 .5.5v2a.5.5 0 0 0 1 0v-2A1.5 1.5 0 0 0 9.5 2h-8A1.5 1.5 0 0 0 0 3.5v9A1.5 1.5 0 0 0 1.5 14h8a1.5 1.5 0 0 0 1.5-1.5v-2a.5.5 0 0 0-1 0v2z"/><path fill-rule="evenodd" d="M15.854 8.354a.5.5 0 0 0 0-.708l-3-3a.5.5 0 0 0-.708.708L14.293 7.5H5.5a.5.5 0 0 0 0 1h8.793l-2.147 2.146a.5.5 0 0 0 .708.708l3-3z"/></g></symbol>
<symbol id="icon-box-arrow-up-right" viewBox="0 0 24 24"><g transform="scale(1.5)" fill="currentColor"><path fill-rule="evenodd" d="M8.636 3.5a.5.5 0 0 0-.5-.5H1.5A1.5 1.5 0 0 0 0 4.5v10A1.5 1.5 0 0 0 1.5 16h10a1.5 1.5 0 0 0 1.5-1.5V7.864a.5.5 0 0 0-1 0V14.5a.5.5 0 0 1-.5.5h-10a.5.5 0 0 1-.5-.5v-10a.5.5 0 0 1 .5-.5h6.636a.5.5 0 0 0 .5-.5z"/><path fill-rule="evenodd" d="M16 .5a.5.5 0 0 0-.5-.5h-5a.5.5 0 0 0 0 1h3.793L6.146 9.146a.5.5 0 1 0 .708.708L15 1.707V5.5a.5.5 0 0 0 1 0v-5z"/></g></symbol>
<symbol id="icon-box-seam" viewBox="0 0 24 24"><g transform="scale(1.5)" fill="currentColor"><path d="M8.186 1.113a.5.5 0 0 0-.372 0L1.846 3.5l2.404.961L10.404 2l-2.218-.887zm3.564 1.426L5.596 5 8 5.961 14.154 3.5l-2.404-.961zm3.25 1.7-6.5 2.6v7.922l6.5-2.6V4.24zM7.5 14.762V6.838L1 4.239v7.923l6.5 2.6zM7.443.184a1.5 1.5 0 0 1 1.114 0l7.129 2.852A.5.5 0 0 1 16 3.5v8.662a1 1 0 0 1-.629.928l-7.185 2.874a.5.5 0 0 1-.372 0L.63 13.09a1 1 0 0 1-.63-.928V3.5a.5.5 0 0 1 .314-.464L7.443.184z"/></g></symbol>
<symbol id="icon-broadcast" viewBox="0 0 24 24"><g transform="scale(1.5)" fill="currentColor"><path d="M3.05 3.05a7 7 0 0 0 0 9.9.5.5 0 0 1-.707.707 8 8 0 0 1 0-11.314.5.5 0 0 1 .707.707zm2.122 2.122a4 4 0 0 0 0 5.656.5.5 0 1 1-.708.708 5 5 0 0 1 0-7.072.5.5 0 0 1 .708.708zm5.656-.708a.5.5 0 0 1 .708 0 5 5 0 0 1 0 7.072.5.5 0 1 1-.708-.708 4 4 0 0 0 0-5.656.5.5 0 0 1 0-.708zm2.122-2.12a.5.5 0 0 1 .707 0 8 8 0 0 1 0 11.313.5.5 0 0 1-.707-.707 7 7 0 0 0 0-9.9.5.5 0 0 1 0-.707zM10 8a2 2 0 1 1-4 0 2 2 0 0 1 4 0z"/></g></symbol>
<symbol id="icon-brush" viewBox="0 0 24 24"><g transform="scale(1.5)" fill="currentColor"><path d="M15.825.12a.5.5 0 0 1 .132.584c-1.53 3.43-4.743 8.17-7.095 10.64a6.067 6.067 0 0 1-2.373 1.534c-.018.227-.06.538-.16.868-.201.659-.667 1.479-1.708 1.74a8.118 8.118 0 0 1-3.078.132 3.659 3.659 0 0 1-.562-.135 1.382 1.382 0 0 1-.466-.247.714.714 0 0 1-.204-.288.622.622 0 0 1 .004-.443c.095-.245.316-.38.461-.452.394-.197.625-.453.867-.826.095-.144.184-.297.287-.472l.117-.198c.151-.255.326-.54.546-.848.528-.739 1.201-.925 1.746-.896.126.007.243.025.348.048.062-.172.142-.38.238-.608.261-.619.658-1.419 1.187-2.069 2.176-2.67 6.18-6.206 9.117-8.104a.5.5 0 0 1 .596.04zM4.705 11.912a1.23 1.23 0 0 0-.419-.1c-.246-.013-.573.05-.879.479-.197.275-.355.532-.5.777l-.105.177c-.106.181-.213.362-.32.528a3.39 3.39 0 0 1-.76.861c.69.112 1.736.111 2.657-.12.559-.139.843-.569.993-1.06a3.122 3.122 0 0 0 .126-.75l-.793-.792zm1.44.026c.12-.04.277-.1.458-.183a5.068 5.068 0 0 0 1.535-1.1c1.9-1.996 4.412-5.57 6.052-8.631-2.59 1.927-5.566 4.66-7.302 6.792-.442.543-.795 1.243-1.042 1.826-.121.288-.214.54-.275.72v.001l.575.575zm-4.973 3.04.007-.005a.031.031 0 0 1-.007.004zm3.582-3.043.002.001h-.002z"/></g></symbol>
<symbol id="icon-building" viewBox="0 0 24 24"><g transform="scale(1.5)" fill="currentColor"><path fill-rule="evenodd" d="M14.763.075A.5.5 0 0 1 15 .5v15a.5.5 0 0 1-.5.5h-3a.5.5 0 0 1-.5-.5V14h-1v1.5a.5.5 0 0 1-.5.5h-9a.5.5 0 0 1-.5-.5V10a.5.5 0 0 1 .342-.474L6 7.64V4.5a.5.5 0 0 1 .276-.447l8-4a.5.5 0 0 1 .487.022zM6 8.694 1 10.36V15h5V8.694zM7 15h2v-1.5a.5.5 0 0 1 .5-.5h2a.5.5 0 0 1 .5.5V15h2V1.309l-7 3.5V15z"/><path d="M2 11h1v1H2v-1zm2 0h1v1H4v-1zm-2 2h1v1H2v-1zm2 0h1v1H4v-1zm4-4h1v1H8V9zm2 0h1v1h-1V9zm-2 2h1v1H8v-1zm2 0h1v1h-1v-1zm2-2h1v1h-1V9zm0 2h1v1h-1v-1zM8 7h1v1H8V7zm2 0h1v1h-1V7zm2 0h1v1h-1V7zM8 5h1v1H8V5zm2 0h1v1h-1V5zm2 0h1v1h-1V5zm0-2h1v1h-1V3z"/></g></symbol>
<symbol id="icon-calendar3" viewBox="0 0 24 24"><g transform="scale(1.5)" fill="currentColor"><path d="M14 0H2a2 2 0 0 0-2 2v12a2 2 0 0 0 2 2h12a2 2 0 0 0 2-2V2a2 2 0 0 0-2-2zM1 3.857C1 3.384 1.448 3 2 3h12c.552 0 1 .384 1 .857v10.286c0 .473-.448.857-1 .857H2c-.552 0-1-.384-1-.857V3.857z"/><path d="M6.5 7a1 1 0 1 0 0-2 1 1 0 0 0 0 2zm3 0a1 1 0 1 0 0-2 1 1 0 0 0 0 2zm3 0a1 1 0 1 0 0-2 1 1 0 0 0 0 2zm-9 3a1 1 0 1 0 0-2 1 1 0 0 0 0 2zm3 0a1 1 0 1 0 0-2 1 1 0 0 0 0 2zm3 0a1 1 0 1 0 0-2 1 1 0 0 0 0 2zm3 0a1 1 0 1 0 0-2 1 1 0 0 0 0 2zm-9 3a1 1 0 1 0 0-2 1 1 0 0 0 0 2zm3 0a1 1 0 1 0 0-2 1 1 0 0 0 0 2zm3 0a1 1 0 1 0 0-2 1 1 0 0 0 0 2z"/></g></symbol>
<symbol id="icon-camera" viewBox="0 0 24 24"><g transform="scale(1.5)" fill="currentColor"><path d="M15 12a1 1 0 0 1-1 1H2a1 1 0 0 1-1-1V6a1 1 0 0 1 1-1h1.172a3 3 0 0 0 2.12-.879l.83-.828A1 1 0 0 1 6.827 3h2.344a1 1 0 0 1 .707.293l.828.828A3 3 0 0 0 12.828 5H14a1 1 0 0 1 1 1v6zM2 4a2 2 0 0 0-2 2v6a2 2 0 0 0 2 2h12a2 2 0 0 0 2-2V6a2 2 0 0 0-2-2h-1.172a2 2 0 0 1-1.414-.586l-.828-.828A2 2 0 0 0 9.172 2H6.828a2 2 0 0 0-1.414.586l-.828.828A2 2 0 0 1 3.172 4H2z"/><path d="M8 11a2.5 2.5 0 1 1 0-5 2.5 2.5 0 0 1 0 5zm0 1a3.5 3.5 0 1 0 0-7 3.5 3.5 0 0 0 0 7zM3 6.5a.5.5 0 1 1-1 0 .5.5 0 0 1 1 0z"/></g></symbol>
<symbol id="icon-camera-video" viewBox="0 0 24 24"><g transform="scale(1.5)" fill="currentColor"><path fill-rule="evenodd" d="M0 5a2 2 0 0 1 2-2h7.5a2 2 0 0 1 1.983 1.738l3.11-1.382A1 1 0 0 1 16 4.269v7.462a1 1 0 0 1-1.406.913l-3.111-1.382A2 2 0 0 1 9.5 13H2a2 2 0 0 1-2-2V5zm11.5 5.175 3.5 1.556V4.269l-3.5 1.556v4.35zM2 4a1 1 0 0 0-1 1v6a1 1 0 0 0 1 1h7.5a1 1 0 0 0 1-1V5a1 1 0 0 0-1-1H2z"/></g></symbol>
<symbol id="icon-cart" viewBox="0 0 24 24"><g transform="scale(1.5)" fill="currentColor"><path d="M0 1.5A.5.5 0 0 1 .5 1H2a.5.5 0 0 1 .485.379L2.89 3H14.5a.5.5 0 0 1 .491.592l-1.5 8A.5.5 0 0 1 13 12H4a.5.5 0 0 1-.491-.408L2.01 3.607 1.61 2H.5a.5.5 0 0 1-.5-.5zM3.102 4l1.313 7h8.17l1.313-7H3.102zM5 12a2 2 0 1 0 0 4 2 2 0 0 0 0-4zm7 0a2 2 0 1 0 0 4 2 2 0 0 0 0-4zm-7 1a1 1 0 1 1 0 2 1 1 0 0 1 0-2zm7 0a1 1 0 1 1 0 2 1 1 0 0 1 0-2z"/></g></symbol>
<symbol id="icon-chat-dots-fill" viewBox="0 0 24 24"><g transform="scale(1.5)" fill="currentColor"><path d="M16 8c0 3.866-3.582 7-8 7a9.06 9.06 0 0 1-2.347-.306c-.584.296-1.925.864-4.181 1.234-.2.032-.352-.176-.273-.362.354-.836.674-1.95.77-2.966C.744 11.37 0 9.76 0 8c0-3.866 3.582-7 8-7s8 3.134 8 7zM5 8a1 1 0 1 0-2 0 1 1 0 0 0 2 0zm4 0a1 1 0 1 0-2 0 1 1 0 0 0 2 0zm3 1a1 1 0 1 0 0-2 1 1 0 0 0 0 2z"/></g></symbol>
<symbol id="icon-check" viewBox="0 0 24 24"><g transform="scale(1.5)" fill="currentColor"><path d="M10.97 4.97a.75.75 0 0 1 1.07 1.05l-3.99 4.99a.75.75 0 0 1-1.08.02L4.324 8.384a.75.75 0 1 1 1.06-1.06l2.094 2.093 3.473-4.425a.267.267 0 0 1 .02-.022z"/></g></symbol>
<symbol id="icon-check2" viewBox="0 0 24 24"><g transform="scale(1.5)" fill="currentColor"><path d="M13.854 3.646a.5.5 0 0 1 0 .708l-7 7a.5.5 0 0 1-.708 0l-3.5-3.5a.5.5 0 1 1 .708-.708L6.5 10.293l6.646-6.647a.5.5 0 0 1 .708 0z"/></g></symbol>
<symbol id="icon-check2-square" viewBox="0 0 24 24"><g transform="scale(1.5)" fill="currentColor"><path d="M3 14.5A1.5 1.5 0 0 1 1.5 13V3A1.5 1.5 0 0 1 3 1.5h8a.5.5 0 0 1 0 1H3a.5.5 0 0 0-.5.5v10a.5.5 0 0 0 .5.5h10a.5.5 0 0 0 .5-.5V8a.5.5 0 0 1 1 0v5a1.5 1.5 0 0 1-1.5 1.5H3z"/><path d="m8.354 10.354 7-7a.5.5 0 0 0-.708-.708L8 9.293 5.354 6.646a.5.5 0 1 0-.708.708l3 3a.5.5 0 0 0 .708 0z"/></g></symbol>
<symbol id="icon-check-circle" viewBox="0 0 24 24"><g transform="scale(1.5)" fill="currentColor"><path d="M8 15A7 7 0 1 1 8 1a7 7 0 0 1 0 14zm0 1A8 8 0 1 0 8 0a8 8 0 0 0 0 16z"/><path d="M10.97 4.97a.235.235 0 0 0-.02.022L7.477 9.417 5.384 7.323a.75.75 0 0 0-1.06 1.06L6.97 11.03a.75.75 0 0 0 1.079-.02l3.992-4.99a.75.75 0 0 0-1.071-1.05z"/></g></symbol>
<symbol id="icon-check-circle-fill" viewBox="0 0 24 24"><g transform="scale(1.5)" fill="currentColor"><path d="M16 8A8 8 0 1 1 0 8a8 8 0 0 1 16 0zm-3.97-3.03a.75.75 0 0 0-1.08.022L7.477 9.417 5.384 7.323a.75.75 0 0 0-1.06 1.06L6.97 11.03a.75.75 0 0 0 1.079-.02l3.992-4.99a.75.75 0 0 0-.01-1.05z"/></g></symbol>
<symbol id="icon-chevron-down" viewBox="0 0 24 24"><g transform="scale(1.5)" fill="currentColor"><path fill-rule="evenodd" d="M1.646 4.646a.5.5 0 0 1 .708 0L8 10.293l5.646-5.647a.5.5 0 0 1 .708.708l-6 6a.5.5 0 0 1-.708 0l-6-6a.5.5 0 0 1 0-.708z"/></g></symbol>
<symbol id="icon-chevron-left" viewBox="0 0 24 24"><g transform="scale(1.5)" fill="currentColor"><path fill-rule="evenodd" d="M11.354 1.646a.5.5 0 0 1 0 .708L5.707 8l5.647 5.646a.5.5 0 0 1-.708.708l-6-6a.5.5 0 0 1 0-.708l6-6a.5.5 0 0 1 .708 0z"/></g></symbol>
<symbol id="icon-chevron-right" viewBox="0 0 24 24"><g transform="scale(1.5)" fill="currentColor"><path fill-rule="evenodd" d="M4.646 1.646a.5.5 0 0 1 .708 0l6 6a.5.5 0 0 1 0 .708l-6 6a.5.5 0 0 1-.708-.708L10.293 8 4.646 2.354a.5.5 0 0 1 0-.708z"/></g></symbol>
<symbol id="icon-clipboard" viewBox="0 0 24 24"><g transform="scale(1.5)" fill="currentColor"><path d="M4 1.5H3a2 2 0 0 0-2 2V14a2 2 0 0 0 2 2h10a2 2 0 0 0 2-2V3.5a2 2 0 0 0-2-2h-1v1h1a1 1 0 0 1 1 1V14a1 1 0 0 1-1 1H3a1 1 0 0 1-1-1V3.5a1 1 0 0 1 1-1h1v-1z"/><path d="M9.5 1a.5.5 0 0 1 .5.5v1a.5.5 0 0 1-.5.5h-3a.5.5 0 0 1-.5-.5v-1a.5.5 0 0 1 .5-.5h3zm-3-1A1.5 1.5 0 0 0 5 1.5v1A1.5 1.5 0 0 0 6.5 4h3A1.5 1.5 0 0 0 11 2.5v-1A1.5 1.5 0 0 0 9.5 0h-3z"/></g></symbol>
<symbol id="icon-clipboard-check" viewBox="0 0 24 24"><g transform="scale(1.5)" fill="currentColor"><path fill-rule="evenodd" d="M10.854 7.146a.5.5 0 0 1 0 .708l-3 3a.5.5 0 0 1-.708 0l-1.5-1.5a.5.5 0 1 1 .708-.708L7.5 9.793l2.646-2.647a.5.5 0 0 1 .708 0z"/><path d="M4 1.5H3a2 2 0 0 0-2 2V14a2 2 0 0 0 2 2h10a2 2 0 0 0 2-2V3.5a2 2 0 0 0-2-2h-1v1h1a1 1 0 0 1 1 1V14a1 1 0 0 1-1 1H3a1 1 0 0 1-1-1V3.5a1 1 0 0 1 1-1h1v-1z"/><path d="M9.5 1a.5.5 0 0 1 .5.5v1a.5.5 0 0 1-.5.5h-3a.5.5 0 0 1-.5-.5v-1a.5.5 0 0 1 .5-.5h3zm-3-1A1.5 1.5 0 0 0 5 1.5v1A1.5 1.5 0 0 0 6.5 4h3A1.5 1.5 0 0 0 11 2.5v-1A1.5 1.5 0 0 0 9.5 0h-3z"/></g></symbol>
<symbol id="icon-clipboard-plus" viewBox="0 0 24 24"><g transform="scale(1.5)" fill="currentColor"><path fill-rule="evenodd" d="M8 7a.5.5 0 0 1 .5.5V9H10a.5.5 0 0 1 0 1H8.5v1.5a.5.5 0 0 1-1 0V10H6a.5.5 0 0 1 0-1h1.5V7.5A.5.5 0 0 1 8 7z"/><path d="M4 1.5H3a2 2 0 0 0-2 2V14a2 2 0 0 0 2 2h10a2 2 0 0 0 2-2V3.5a2 2 0 0 0-2-2h-1v1h1a1 1 0 0 1 1 1V14a1 1 0 0 1-1 1H3a1 1 0 0 1-1-1V3.5a1 1 0 0 1 1-1h1v-1z"/><path d="M9.5 1a.5.5 0 0 1 .5.5v1a.5.5 0 0 1-.5.5h-3a.5.5 0 0 1-.5-.5v-1a.5.5 0 0 1 .5-.5h3zm-3-1A1.5 1.5 0 0 0 5 1.5v1A1.5 1.5 0 0 0 6.5 4h3A1.5 1.5 0 0 0 11 2.5v-1A1.5 1.5 0 0 0 9.5 0h-3z"/></g></symbol>
<symbol id="icon-clock" viewBox="0 0 24 24"><g transform="scale(1.5)" fill="currentColor"><path d="M8 3.5a.5.5 0 0 0-1 0V9a.5.5 0 0 0 .252.434l3.5 2a.5.5 0 0 0 .496-.868L8 8.71V3.5z"/><path d="M8 16A8 8 0 1 0 8 0a8 8 0 0 0 0 16zm7-8A7 7 0 1 1 1 8a7 7 0 0 1 14 0z"/></g></symbol>
<symbol id="icon-clock-history" viewBox="0 0 24 24"><g transform="scale(1.5)" fill="currentColor"><path d="M8.515 1.019A7 7 0 0 0 8 1V0a8 8 0 0 1 .589.022l-.074.997zm2.004.45a7.003 7.003 0 0 0-.985-.299l.219-.976c.383.086.76.2 1.126.342l-.36.933zm1.37.71a7.01 7.01 0 0 0-.439-.27l.493-.87a8.025 8.025 0 0 1 .979.654l-.615.789a6.996 6.996 0 0 0-.418-.302zm1.834 1.79a6.99 6.99 0 0 0-.653-.796l.724-.69c.27.285.52.59.747.91l-.818.576zm.744 1.352a7.08 7.08 0 0 0-.214-.468l.893-.45a7.976 7.976 0 0 1 .45 1.088l-.95.313a7.023 7.023 0 0 0-.179-.483zm.53 2.507a6.991 6.991 0 0 0-.1-1.025l.985-.17c.067.386.106.778.116 1.17l-1 .025zm-.131 1.538c.033-.17.06-.339.081-.51l.993.123a7.957 7.957 0 0 1-.23 1.155l-.964-.267c.046-.165.086-.332.12-.501zm-.952 2.379c.184-.29.346-.594.486-.908l.914.405c-.16.36-.345.706-.555 1.038l-.845-.535zm-.964 1.205c.122-.122.239-.248.35-.378l.758.653a8.073 8.073 0 0 1-.401.432l-.707-.707z"/><path d="M8 1a7 7 0 1 0 4.95 11.95l.707.707A8.001 8.001 0 1 1 8 0v1z"/><path d="M7.5 3a.5.5 0 0 1 .5.5v5.21l3.248 1.856a.5.5 0 0 1-.496.868l-3.5-2A.5.5 0 0 1 7 9V3.5a.5.5 0 0 1 .5-.5z"/></g></symbol>
<symbol id="icon-cloud" viewBox="0 0 24 24"><g transform="scale(1.5)" fill="currentColor"><path d="M4.406 3.342A5.53 5.53 0 0 1 8 2c2.69 0 4.923 2 5.166 4.579C14.758 6.804 16 8.137 16 9.773 16 11.569 14.502 13 12.687 13H3.781C1.708 13 0 11.366 0 9.318c0-1.763 1.266-3.223 2.942-3.593.143-.863.698-1.723 1.464-2.383zm.653.757c-.757.653-1.153 1.44-1.153 2.056v.448l-.445.049C2.064 6.805 1 7.952 1 9.318 1 10.785 2.23 12 3.781 12h8.906C13.98 12 15 10.988 15 9.773c0-1.216-1.02-2.228-2.313-2.228h-.5v-.5C12.188 4.825 10.328 3 8 3a4.53 4.53 0 0 0-2.941 1.1z"/></g></symbol>
<symbol id="icon-cloud-download" viewBox="0 0 24 24"><g transform="scale(1.5)" fill="currentColor"><path d="M4.406 1.342A5.53 5.53 0 0 1 8 0c2.69 0 4.923 2 5.166 4.579C14.758 4.804 16 6.137 16 7.773 16 9.569 14.502 11 12.687 11H10a.5.5 0 0 1 0-1h2.688C13.979 10 15 8.988 15 7.773c0-1.216-1.02-2.228-2.313-2.228h-.5v-.5C12.188 2.825 10.328 1 8 1a4.53 4.53 0 0 0-2.941 1.1c-.757.652-1.153 1.438-1.153 2.055v.448l-.445.049C2.064 4.805 1 5.952 1 7.318 1 8.785 2.23 10 3.781 10H6a.5.5 0 0 1 0 1H3.781C1.708 11 0 9.366 0 7.318c0-1.763 1.266-3.223 2.942-3.593.143-.863.698-1.723 1.464-2.383z"/><path d="M7.646 15.854a.5.5 0 0 0 .708 0l3-3a.5.5 0 0 0-.708-.708L8.5 14.293V5.5a.5.5 0 0 0-1 0v8.793l-2.146-2.147a.5.5 0 0 0-.708.708l3 3z"/></g></symbol>
<symbol id="icon-cloud-slash" viewBox="0 0 24 24"><g transform="scale(1.5)" fill="currentColor"><path fill-rule="evenodd" d="M3.112 5.112a3.125 3.125 0 0 0-.17.613C1.266 6.095 0 7.555 0 9.318 0 11.366 1.708 13 3.781 13H11l-1-1H3.781C2.231 12 1 10.785 1 9.318c0-1.365 1.064-2.513 2.46-2.666l.446-.05v-.447c0-.075.006-.152.018-.231l-.812-.812zm2.55-1.45-.725-.725A5.512 5.512 0 0 1 8 2c2.69 0 4.923 2 5.166 4.579C14.758 6.804 16 8.137 16 9.773a3.2 3.2 0 0 1-1.516 2.711l-.733-.733C14.498 11.378 15 10.626 15 9.773c0-1.216-1.02-2.228-2.313-2.228h-.5v-.5C12.188 4.825 10.328 3 8 3c-.875 0-1.678.26-2.339.661z"/><path d="m13.646 14.354-12-12 .708-.708 12 12-.707.707z"/></g></symbol>
<symbol id="icon-cloud-upload" viewBox="0 0 24 24"><g transform="scale(1.5)" fill="currentColor"><path fill-rule="evenodd" d="M4.406 1.342A5.53 5.53 0 0 1 8 0c2.69 0 4.923 2 5.166 4.579C14.758 4.804 16 6.137 16 7.773 16 9.569 14.502 11 12.687 11H10a.5.5 0 0 1 0-1h2.688C13.979 10 15 8.988 15 7.773c0-1.216-1.02-2.228-2.313-2.228h-.5v-.5C12.188 2.825 10.328 1 8 1a4.53 4.53 0 0 0-2.941 1.1c-.757.652-1.153 1.438-1.153 2.055v.448l-.445.049C2.064 4.805 1 5.952 1 7.318 1 8.785 2.23 10 3.781 10H6a.5.5 0 0 1 0 1H3.781C1.708 11 0 9.366 0 7.318c0-1.763 1.266-3.223 2.942-3.593.143-.863.698-1.723 1.464-2.383z"/><path fill-rule="evenodd" d="M7.646 4.146a.5.5 0 0 1 .708 0l3 3a.5.5 0 0 1-.708.708L8.5 5.707V14.5a.5.5 0 0 1-1 0V5.707L5.354 7.854a.5.5 0 1 1-.708-.708l3-3z"/></g></symbol>
<symbol id="icon-cpu" viewBox="0 0 24 24"><g transform="scale(1.5)" fill="currentColor"><path d="M5 0a.5.5 0 0 1 .5.5V2h1V.5a.5.5 0 0 1 1 0V2h1V.5a.5.5 0 0 1 1 0V2h1V.5a.5.5 0 0 1 1 0V2A2.5 2.5 0 0 1 14 4.5h1.5a.5.5 0 0 1 0 1H14v1h1.5a.5.5 0 0 1 0 1H14v1h1.5a.5.5 0 0 1 0 1H14v1h1.5a.5.5 0 0 1 0 1H14a2.5 2.5 0 0 1-2.5 2.5v1.5a.5.5 0 0 1-1 0V14h-1v1.5a.5.5 0 0 1-1 0V14h-1v1.5a.5.5 0 0 1-1 0V14h-1v1.5a.5.5 0 0 1-1 0V14A2.5 2.5 0 0 1 2 11.5H.5a.5.5 0 0 1 0-1H2v-1H.5a.5.5 0 0 1 0-1H2v-1H.5a.5.5 0 0 1 0-1H2v-1H.5a.5.5 0 0 1 0-1H2A2.5 2.5 0 0 1 4.5 2V.5A.5.5 0 0 1 5 0zm-.5 3A1.5 1.5 0 0 0 3 4.5v7A1.5 1.5 0 0 0 4.5 13h7a1.5 1.5 0 0 0 1.5-1.5v-7A1.5 1.5 0 0 0 11.5 3h-7zM5 6.5A1.5 1.5 0 0 1 6.5 5h3A1.5 1.5 0 0 1 11 6.5v3A1.5 1.5 0 0 1 9.5 11h-3A1.5 1.5 0 0 1 5 9.5v-3zM6.5 6a.5.5 0 0 0-.5.5v3a.5.5 0 0 0 .5.5h3a.5.5 0 0 0 .5-.5v-3a.5.5 0 0 0-.5-.5h-3z"/></g></symbol>
<symbol id="icon-credit-card" viewBox="0 0 24 24"><g transform="scale(1.5)" fill="currentColor"><path d="M0 4a2 2 0 0 1 2-2h12a2 2 0 0 1 2 2v8a2 2 0 0 1-2 2H2a2 2 0 0 1-2-2V4zm2-1a1 1 0 0 0-1 1v1h14V4a1 1 0 0 0-1-1H2zm13 4H1v5a1 1 0 0 0 1 1h12a1 1 0 0 0 1-1V7z"/><path d="M2 10a1 1 0 0 1 1-1h1a1 1 0 0 1 1 1v1a1 1 0 0 1-1 1H3a1 1 0 0 1-1-1v-1z"/></g></symbol>
<symbol id="icon-diagram3" viewBox="0 0 24 24"><g transform="scale(1.5)" fill="currentColor"><path fill-rule="evenodd" d="M6 3.5A1.5 1.5 0 0 1 7.5 2h1A1.5 1.5 0 0 1 10 3.5v1A1.5 1.5 0 0 1 8.5 6v1H14a.5.5 0 0 1 .5.5v1a.5.5 0 0 1-1 0V8h-5v.5a.5.5 0 0 1-1 0V8h-5v.5a.5.5 0 0 1-1 0v-1A.5.5 0 0 1 2 7h5.5V6A1.5 1.5 0 0 1 6 4.5v-1zM8.5 5a.5.5 0 0 0 .5-.5v-1a.5.5 0 0 0-.5-.5h-1a.5.5 0 0 0-.5.5v1a.5.5 0 0 0 .5.5h1zM0 11.5A1.5 1.5 0 0 1 1.5 10h1A1.5 1.5 0 0 1 4 11.5v1A1.5 1.5 0 0 1 2.5 14h-1A1.5 1.5 0 0 1 0 12.5v-1zm1.5-.5a.5.5 0 0 0-.5.5v1a.5.5 0 0 0 .5.5h1a.5.5 0 0 0 .5-.5v-1a.5.5 0 0 0-.5-.5h-1zm4.5.5A1.5 1.5 0 0 1 7.5 10h1a1.5 1.5 0 0 1 1.5 1.5v1A1.5 1.5 0 0 1 8.5 14h-1A1.5 1.5 0 0 1 6 12.5v-1zm1.5-.5a.5.5 0 0 0-.5.5v1a.5.5 0 0 0 .5.5h1a.5.5 0 0 0 .5-.5v-1a.5.5 0 0 0-.5-.5h-1zm4.5.5a1.5 1.5 0 0 1 1.5-1.5h1a1.5 1.5 0 0 1 1.5 1.5v1a1.5 1.5 0 0 1-1.5 1.5h-1a1.5 1.5 0 0 1-1.5-1.5v-1zm1.5-.5a.5.5 0 0 0-.5.5v1a.5.5 0 0 0 .5.5h1a.5.5 0 0 0 .5-.5v-1a.5.5 0 0 0-.5-.5h-1z"/></g></symbol>
<symbol id="icon-diagram3-fill" viewBox="0 0 24 24"><g transform="scale(1.5)" fill="currentColor"><path fill-rule="evenodd" d="M6 3.5A1.5 1.5 0 0 1 7.5 2h1A1.5 1.5 0 0 1 10 3.5v1A1.5 1.5 0 0 1 8.5 6v1H14a.5.5 0 0 1 .5.5v1a.5.5 0 0 1-1 0V8h-5v.5a.5.5 0 0 1-1 0V8h-5v.5a.5.5 0 0 1-1 0v-1A.5.5 0 0 1 2 7h5.5V6A1.5 1.5 0 0 1 6 4.5v-1zm-6 8A1.5 1.5 0 0 1 1.5 10h1A1.5 1.5 0 0 1 4 11.5v1A1.5 1.5 0 0 1 2.5 14h-1A1.5 1.5 0 0 1 0 12.5v-1zm6 0A1.5 1.5 0 0 1 7.5 10h1a1.5 1.5 0 0 1 1.5 1.5v1A1.5 1.5 0 0 1 8.5 14h-1A1.5 1.5 0 0 1 6 12.5v-1zm6 0a1.5 1.5 0 0 1 1.5-1.5h1a1.5 1.5 0 0 1 1.5 1.5v1a1.5 1.5 0 0 1-1.5 1.5h-1a1.5 1.5 0 0 1-1.5-1.5v-1z"/></g></symbol>
<symbol id="icon-display" viewBox="0 0 24 24"><g transform="scale(1.5)" fill="currentColor"><path d="M0 4s0-2 2-2h12s2 0 2 2v6s0 2-2 2h-4c0 .667.083 1.167.25 1.5H11a.5.5 0 0 1 0 1H5a.5.5 0 0 1 0-1h.75c.167-.333.25-.833.25-1.5H2s-2 0-2-2V4zm1.398-.855a.758.758 0 0 0-.254.302A1.46 1.46 0 0 0 1 4.01V10c0 .325.078.502.145.602.07.105.17.188.302.254a1.464 1.464 0 0 0 .538.143L2.01 11H14c.325 0 .502-.078.602-.145a.758.758 0 0 0 .254-.302 1.464 1.464 0 0 0 .143-.538L15 9.99V4c0-.325-.078-.502-.145-.602a.757.757 0 0 0-.302-.254A1.46 1.46 0 0 0 13.99 3H2c-.325 0-.502.078-.602.145z"/></g></symbol>
<symbol id="icon-download" viewBox="0 0 24 24"><g transform="scale(1.5)" fill="currentColor"><path d="M.5 9.9a.5.5 0 0 1 .5.5v2.5a1 1 0 0 0 1 1h12a1 1 0 0 0 1-1v-2.5a.5.5 0 0 1 1 0v2.5a2 2 0 0 1-2 2H2a2 2 0 0 1-2-2v-2.5a.5.5 0 0 1 .5-.5z"/><path d="M7.646 11.854a.5.5 0 0 0 .708 0l3-3a.5.5 0 0 0-.708-.708L8.5 10.293V1.5a.5.5 0 0 0-1 0v8.793L5.354 8.146a.5.5 0 1 0-.708.708l3 3z"/></g></symbol>
<symbol id="icon-droplet-fill" viewBox="0 0 24 24"><g transform="scale(1.5)" fill="currentColor"><path fill-rule="evenodd" d="M8 16a6 6 0 0 0 6-6c0-1.655-1.122-2.904-2.432-4.362C10.254 4.176 8.75 2.503 8 0c0 0-6 5.686-6 10a6 6 0 0 0 6 6zM6.646 4.646c-.376.377-1.272 1.489-2.093 3.13l.894.448c.78-1.559 1.616-2.58 1.907-2.87l-.708-.708z"/></g></symbol>
<symbol id="icon-envelope" viewBox="0 0 24 24"><g transform="scale(1.5)" fill="currentColor"><path d="M0 4a2 2 0 0 1 2-2h12a2 2 0 0 1 2 2v8a2 2 0 0 1-2 2H2a2 2 0 0 1-2-2V4zm2-1a1 1 0 0 0-1 1v.217l7 4.2 7-4.2V4a1 1 0 0 0-1-1H2zm13 2.383-4.758 2.855L15 11.114v-5.73zm-.034 6.878L9.271 8.82 8 9.583 6.728 8.82l-5.694 3.44A1 1 0 0 0 2 13h12a1 1 0 0 0 .966-.739zM1 11.114l4.758-2.876L1 5.383v5.73z"/></g></symbol>
<symbol id="icon-exclamation-octagon" viewBox="0 0 24 24"><g transform="scale(1.5)" fill="currentColor"><path d="M4.54.146A.5.5 0 0 1 4.893 0h6.214a.5.5 0 0 1 .353.146l4.394 4.394a.5.5 0 0 1 .146.353v6.214a.5.5 0 0 1-.146.353l-4.394 4.394a.5.5 0 0 1-.353.146H4.893a.5.5 0 0 1-.353-.146L.146 11.46A.5.5 0 0 1 0 11.107V4.893a.5.5 0 0 1 .146-.353L4.54.146zM5.1 1 1 5.1v5.8L5.1 15h5.8l4.1-4.1V5.1L10.9 1H5.1z"/><path d="M7.002 11a1 1 0 1 1 2 0 1 1 0 0 1-2 0zM7.1 4.995a.905.905 0 1 1 1.8 0l-.35 3.507a.552.552 0 0 1-1.1 0L7.1 4.995z"/></g></symbol>
<symbol id="icon-exclamation-triangle" viewBox="0 0 24 24"><g transform="scale(1.5)" fill="currentColor"><path d="M7.938 2.016A.13.13 0 0 1 8.002 2a.13.13 0 0 1 .063.016.146.146 0 0 1 .054.057l6.857 11.667c.036.06.035.124.002.183a.163.163 0 0 1-.054.06.116.116 0 0 1-.066.017H1.146a.115.115 0 0 1-.066-.017.163.163 0 0 1-.054-.06.176.176 0 0 1 .002-.183L7.884 2.073a.147.147 0 0 1 .054-.057zm1.044-.45a1.13 1.13 0 0 0-1.96 0L.165 13.233c-.457.778.091 1.767.98 1.767h13.713c.889 0 1.438-.99.98-1.767L8.982 1.566z"/><path d="M7.002 12a1 1 0 1 1 2 0 1 1 0 0 1-2 0zM7.1 5.995a.905.905 0 1 1 1.8 0l-.35 3.507a.552.552 0 0 1-1.1 0L7.1 5.995z"/></g></symbol>
<symbol id="icon-eye" viewBox="0 0 24 24"><g transform="scale(1.5)" fill="currentColor"><path d="M16 8s-3-5.5-8-5.5S0 8 0 8s3 5.5 8 5.5S16 8 16 8zM1.173 8a13.133 13.133 0 0 1 1.66-2.043C4.12 4.668 5.88 3.5 8 3.5c2.12 0 3.879 1.168 5.168 2.457A13.133 13.133 0 0 1 14.828 8c-.058.087-.122.183-.195.288-.335.48-.83 1.12-1.465 1.755C11.879 11.332 10.119 12.5 8 12.5c-2.12 0-3.879-1.168-5.168-2.457A13.134 13.134 0 0 1 1.172 8z"/><path d="M8 5.5a2.5 2.5 0 1 0 0 5 2.5 2.5 0 0 0 0-5zM4.5 8a3.5 3.5 0 1 1 7 0 3.5 3.5 0 0 1-7 0z"/></g></symbol>
<symbol id="icon-eye-slash" viewBox="0 0 24 24"><g transform="scale(1.5)" fill="currentColor"><path d="M13.359 11.238C15.06 9.72 16 8 16 8s-3-5.5-8-5.5a7.028 7.028 0 0 0-2.79.588l.77.771A5.944 5.944 0 0 1 8 3.5c2.12 0 3.879 1.168 5.168 2.457A13.134 13.134 0 0 1 14.828 8c-.058.087-.122.183-.195.288-.335.48-.83 1.12-1.465 1.755-.165.165-.337.328-.517.486l.708.709z"/><path d="M11.297 9.176a3.5 3.5 0 0 0-4.474-4.474l.823.823a2.5 2.5 0 0 1 2.829 2.829l.822.822zm-2.943 1.299.822.822a3.5 3.5 0 0 1-4.474-4.474l.823.823a2.5 2.5 0 0 0 2.829 2.829z"/><path d="M3.35 5.47c-.18.16-.353.322-.518.487A13.134 13.134 0 0 0 1.172 8l.195.288c.335.48.83 1.12 1.465 1.755C4.121 11.332 5.881 12.5 8 12.5c.716 0 1.39-.133 2.02-.36l.77.772A7.029 7.029 0 0 1 8 13.5C3 13.5 0 8 0 8s.939-1.721 2.641-3.238l.708.709zm10.296 8.884-12-12 .708-.708 12 12-.708.708z"/></g></symbol>
<symbol id="icon-file-earmark" viewBox="0 0 24 24"><g transform="scale(1.5)" fill="currentColor"><path d="M14 4.5V14a2 2 0 0 1-2 2H4a2 2 0 0 1-2-2V2a2 2 0 0 1 2-2h5.5L14 4.5zm-3 0A1.5 1.5 0 0 1 9.5 3V1H4a1 1 0 0 0-1 1v12a1 1 0 0 0 1 1h8a1 1 0 0 0 1-1V4.5h-2z"/></g></symbol>
<symbol id="icon-file-earmark-code" viewBox="0 0 24 24"><g transform="scale(1.5)" fill="currentColor"><path d="M14 4.5V14a2 2 0 0 1-2 2H4a2 2 0 0 1-2-2V2a2 2 0 0 1 2-2h5.5L14 4.5zm-3 0A1.5 1.5 0 0 1 9.5 3V1H4a1 1 0 0 0-1 1v12a1 1 0 0 0 1 1h8a1 1 0 0 0 1-1V4.5h-2z"/><path d="M8.646 6.646a.5.5 0 0 1 .708 0l2 2a.5.5 0 0 1 0 .708l-2 2a.5.5 0 0 1-.708-.708L10.293 9 8.646 7.354a.5.5 0 0 1 0-.708zm-1.292 0a.5.5 0 0 0-.708 0l-2 2a.5.5 0 0 0 0 .708l2 2a.5.5 0 0 0 .708-.708L5.707 9l1.647-1.646a.5.5 0 0 0 0-.708z"/></g></symbol>
<symbol id="icon-file-earmark-text" viewBox="0 0 24 24"><g transform="scale(1.5)" fill="currentColor"><path d="M5.5 7a.5.5 0 0 0 0 1h5a.5.5 0 0 0 0-1h-5zM5 9.5a.5.5 0 0 1 .5-.5h5a.5.5 0 0 1 0 1h-5a.5.5 0 0 1-.5-.5zm0 2a.5.5 0 0 1 .5-.5h2a.5.5 0 0 1 0 1h-2a.5.5 0 0 1-.5-.5z"/><path d="M9.5 0H4a2 2 0 0 0-2 2v12a2 2 0 0 0 2 2h8a2 2 0 0 0 2-2V4.5L9.5 0zm0 1v2A1.5 1.5 0 0 0 11 4.5h2V14a1 1 0 0 1-1 1H4a1 1 0 0 1-1-1V2a1 1 0 0 1 1-1h5.5z"/></g></symbol>
<symbol id="icon-files" viewBox="0 0 24 24"><g transform="scale(1.5)" fill="currentColor"><path d="M13 0H6a2 2 0 0 0-2 2 2 2 0 0 0-2 2v10a2 2 0 0 0 2 2h7a2 2 0 0 0 2-2 2 2 0 0 0 2-2V2a2 2 0 0 0-2-2zm0 13V4a2 2 0 0 0-2-2H5a1 1 0 0 1 1-1h7a1 1 0 0 1 1 1v10a1 1 0 0 1-1 1zM3 4a1 1 0 0 1 1-1h7a1 1 0 0 1 1 1v10a1 1 0 0 1-1 1H4a1 1 0 0 1-1-1V4z"/></g></symbol>
<symbol id="icon-folder" viewBox="0 0 24 24"><g transform="scale(1.5)" fill="currentColor"><path d="M.54 3.87.5 3a2 2 0 0 1 2-2h3.672a2 2 0 0 1 1.414.586l.828.828A2 2 0 0 0 9.828 3h3.982a2 2 0 0 1 1.992 2.181l-.637 7A2 2 0 0 1 13.174 14H2.826a2 2 0 0 1-1.991-1.819l-.637-7a1.99 1.99 0 0 1 .342-1.31zM2.19 4a1 1 0 0 0-.996 1.09l.637 7a1 1 0 0 0 .995.91h10.348a1 1 0 0 0 .995-.91l.637-7A1 1 0 0 0 13.81 4H2.19zm4.69-1.707A1 1 0 0 0 6.172 2H2.5a1 1 0 0 0-1 .981l.006.139C1.72 3.042 1.95 3 2.19 3h5.396l-.707-.707z"/></g></symbol>
<symbol id="icon-folder2-open" viewBox="0 0 24 24"><g transform="scale(1.5)" fill="currentColor"><path d="M1 3.5A1.5 1.5 0 0 1 2.5 2h2.764c.958 0 1.76.56 2.311 1.184C7.985 3.648 8.48 4 9 4h4.5A1.5 1.5 0 0 1 15 5.5v.64c.57.265.94.876.856 1.546l-.64 5.124A2.5 2.5 0 0 1 12.733 15H3.266a2.5 2.5 0 0 1-2.481-2.19l-.64-5.124A1.5 1.5 0 0 1 1 6.14V3.5zM2 6h12v-.5a.5.5 0 0 0-.5-.5H9c-.964 0-1.71-.629-2.174-1.154C6.374 3.334 5.82 3 5.264 3H2.5a.5.5 0 0 0-.5.5V6zm-.367 1a.5.5 0 0 0-.496.562l.64 5.124A1.5 1.5 0 0 0 3.266 14h9.468a1.5 1.5 0 0 0 1.489-1.314l.64-5.124A.5.5 0 0 0 14.367 7H1.633z"/></g></symbol>
<symbol id="icon-folder-fill" viewBox="0 0 24 24"><g transform="scale(1.5)" fill="currentColor"><path d="M9.828 3h3.982a2 2 0 0 1 1.992 2.181l-.637 7A2 2 0 0 1 13.174 14H2.825a2 2 0 0 1-1.991-1.819l-.637-7a1.99 1.99 0 0 1 .342-1.31L.5 3a2 2 0 0 1 2-2h3.672a2 2 0 0 1 1.414.586l.828.828A2 2 0 0 0 9.828 3zm-8.322.12C1.72 3.042 1.95 3 2.19 3h5.396l-.707-.707A1 1 0 0 0 6.172 2H2.5a1 1 0 0 0-1 .981l.006.139z"/></g></symbol>
<symbol id="icon-gear" viewBox="0 0 24 24"><g transform="scale(1.5)" fill="currentColor"><path d="M8 4.754a3.246 3.246 0 1 0 0 6.492 3.246 3.246 0 0 0 0-6.492zM5.754 8a2.246 2.246 0 1 1 4.492 0 2.246 2.246 0 0 1-4.492 0z"/><path d="M9.796 1.343c-.527-1.79-3.065-1.79-3.592 0l-.094.319a.873.873 0 0 1-1.255.52l-.292-.16c-1.64-.892-3.433.902-2.54 2.541l.159.292a.873.873 0 0 1-.52 1.255l-.319.094c-1.79.527-1.79 3.065 0 3.592l.319.094a.873.873 0 0 1 .52 1.255l-.16.292c-.892 1.64.901 3.434 2.541 2.54l.292-.159a.873.873 0 0 1 1.255.52l.094.319c.527 1.79 3.065 1.79 3.592 0l.094-.319a.873.873 0 0 1 1.255-.52l.292.16c1.64.893 3.434-.902 2.54-2.541l-.159-.292a.873.873 0 0 1 .52-1.255l.319-.094c1.79-.527 1.79-3.065 0-3.592l-.319-.094a.873.873 0 0 1-.52-1.255l.16-.292c.893-1.64-.902-3.433-2.541-2.54l-.292.159a.873.873 0 0 1-1.255-.52l-.094-.319zm-2.633.283c.246-.835 1.428-.835 1.674 0l.094.319a1.873 1.873 0 0 0 2.693 1.115l.291-.16c.764-.415 1.6.42 1.184 1.185l-.159.292a1.873 1.873 0 0 0 1.116 2.692l.318.094c.835.246.835 1.428 0 1.674l-.319.094a1.873 1.873 0 0 0-1.115 2.693l.16.291c.415.764-.42 1.6-1.185 1.184l-.291-.159a1.873 1.873 0 0 0-2.693 1.116l-.094.318c-.246.835-1.428.835-1.674 0l-.094-.319a1.873 1.873 0 0 0-2.692-1.115l-.292.16c-.764.415-1.6-.42-1.184-1.185l.159-.291A1.873 1.873 0 0 0 1.945 8.93l-.319-.094c-.835-.246-.835-1.428 0-1.674l.319-.094A1.873 1.873 0 0 0 3.06 4.377l-.16-.292c-.415-.764.42-1.6 1.185-1.184l.292.159a1.873 1.873 0 0 0 2.692-1.115l.094-.319z"/></g></symbol>
<symbol id="icon-gear-wide-connected" viewBox="0 0 24 24"><g transform="scale(1.5)" fill="currentColor"><path d="M7.068.727c.243-.97 1.62-.97 1.864 0l.071.286a.96.96 0 0 0 1.622.434l.205-.211c.695-.719 1.888-.03 1.613.931l-.08.284a.96.96 0 0 0 1.187 1.187l.283-.081c.96-.275 1.65.918.931 1.613l-.211.205a.96.96 0 0 0 .434 1.622l.286.071c.97.243.97 1.62 0 1.864l-.286.071a.96.96 0 0 0-.434 1.622l.211.205c.719.695.03 1.888-.931 1.613l-.284-.08a.96.96 0 0 0-1.187 1.187l.081.283c.275.96-.918 1.65-1.613.931l-.205-.211a.96.96 0 0 0-1.622.434l-.071.286c-.243.97-1.62.97-1.864 0l-.071-.286a.96.96 0 0 0-1.622-.434l-.205.211c-.695.719-1.888.03-1.613-.931l.08-.284a.96.96 0 0 0-1.186-1.187l-.284.081c-.96.275-1.65-.918-.931-1.613l.211-.205a.96.96 0 0 0-.434-1.622l-.286-.071c-.97-.243-.97-1.62 0-1.864l.286-.071a.96.96 0 0 0 .434-1.622l-.211-.205c-.719-.695-.03-1.888.931-1.613l.284.08a.96.96 0 0 0 1.187-1.186l-.081-.284c-.275-.96.918-1.65 1.613-.931l.205.211a.96.96 0 0 0 1.622-.434l.071-.286zM12.973 8.5H8.25l-2.834 3.779A4.998 4.998 0 0 0 12.973 8.5zm0-1a4.998 4.998 0 0 0-7.557-3.779l2.834 3.78h4.723zM5.048 3.967c-.03.021-.058.043-.087.065l.087-.065zm-.431.355A4.984 4.984 0 0 0 3.002 8c0 1.455.622 2.765 1.615 3.678L7.375 8 4.617 4.322zm.344 7.646.087.065-.087-.065z"/></g></symbol>
<symbol id="icon-geo-alt" viewBox="0 0 24 24"><g transform="scale(1.5)" fill="currentColor"><path d="M12.166 8.94c-.524 1.062-1.234 2.12-1.96 3.07A31.493 31.493 0 0 1 8 14.58a31.481 31.481 0 0 1-2.206-2.57c-.726-.95-1.436-2.008-1.96-3.07C3.304 7.867 3 6.862 3 6a5 5 0 0 1 10 0c0 .862-.305 1.867-.834 2.94zM8 16s6-5.686 6-10A6 6 0 0 0 2 6c0 4.314 6 10 6 10z"/><path d="M8 8a2 2 0 1 1 0-4 2 2 0 0 1 0 4zm0 1a3 3 0 1 0 0-6 3 3 0 0 0 0 6z"/></g></symbol>
<symbol id="icon-graph-up" viewBox="0 0 24 24"><g transform="scale(1.5)" fill="currentColor"><path fill-rule="evenodd" d="M0 0h1v15h15v1H0V0zm10 3.5a.5.5 0 0 1 .5-.5h4a.5.5 0 0 1 .5.5v4a.5.5 0 0 1-1 0V4.9l-3.613 4.417a.5.5 0 0 1-.74.037L7.06 6.767l-3.656 5.027a.5.5 0 0 1-.808-.588l4-5.5a.5.5 0 0 1 .758-.06l2.609 2.61L13.445 4H10.5a.5.5 0 0 1-.5-.5z"/></g></symbol>
<symbol id="icon-grid" viewBox="0 0 24 24"><g transform="scale(1.5)" fill="currentColor"><path d="M1 2.5A1.5 1.5 0 0 1 2.5 1h3A1.5 1.5 0 0 1 7 2.5v3A1.5 1.5 0 0 1 5.5 7h-3A1.5 1.5 0 0 1 1 5.5v-3zM2.5 2a.5.5 0 0 0-.5.5v3a.5.5 0 0 0 .5.5h3a.5.5 0 0 0 .5-.5v-3a.5.5 0 0 0-.5-.5h-3zm6.5.5A1.5 1.5 0 0 1 10.5 1h3A1.5 1.5 0 0 1 15 2.5v3A1.5 1.5 0 0 1 13.5 7h-3A1.5 1.5 0 0 1 9 5.5v-3zm1.5-.5a.5.5 0 0 0-.5.5v3a.5.5 0 0 0 .5.5h3a.5.5 0 0 0 .5-.5v-3a.5.5 0 0 0-.5-.5h-3zM1 10.5A1.5 1.5 0 0 1 2.5 9h3A1.5 1.5 0 0 1 7 10.5v3A1.5 1.5 0 0 1 5.5 15h-3A1.5 1.5 0 0 1 1 13.5v-3zm1.5-.5a.5.5 0 0 0-.5.5v3a.5.5 0 0 0 .5.5h3a.5.5 0 0 0 .5-.5v-3a.5.5 0 0 0-.5-.5h-3zm6.5.5A1.5 1.5 0 0 1 10.5 9h3a1.5 1.5 0 0 1 1.5 1.5v3a1.5 1.5 0 0 1-1.5 1.5h-3A1.5 1.5 0 0 1 9 13.5v-3zm1.5-.5a.5.5 0 0 0-.5.5v3a.5.5 0 0 0 .5.5h3a.5.5 0 0 0 .5-.5v-3a.5.5 0 0 0-.5-.5h-3z"/></g></symbol>
<symbol id="icon-hdd-network" viewBox="0 0 24 24"><g transform="scale(1.5)" fill="currentColor"><path d="M4.5 5a.5.5 0 1 0 0-1 .5.5 0 0 0 0 1zM3 4.5a.5.5 0 1 1-1 0 .5.5 0 0 1 1 0z"/><path d="M0 4a2 2 0 0 1 2-2h12a2 2 0 0 1 2 2v1a2 2 0 0 1-2 2H8.5v3a1.5 1.5 0 0 1 1.5 1.5h5.5a.5.5 0 0 1 0 1H10A1.5 1.5 0 0 1 8.5 14h-1A1.5 1.5 0 0 1 6 12.5H.5a.5.5 0 0 1 0-1H6A1.5 1.5 0 0 1 7.5 10V7H2a2 2 0 0 1-2-2V4zm1 0v1a1 1 0 0 0 1 1h12a1 1 0 0 0 1-1V4a1 1 0 0 0-1-1H2a1 1 0 0 0-1 1zm6 7.5v1a.5.5 0 0 0 .5.5h1a.5.5 0 0 0 .5-.5v-1a.5.5 0 0 0-.5-.5h-1a.5.5 0 0 0-.5.5z"/></g></symbol>
<symbol id="icon-hdd-stack" viewBox="0 0 24 24"><g transform="scale(1.5)" fill="currentColor"><path d="M14 10a1 1 0 0 1 1 1v1a1 1 0 0 1-1 1H2a1 1 0 0 1-1-1v-1a1 1 0 0 1 1-1h12zM2 9a2 2 0 0 0-2 2v1a2 2 0 0 0 2 2h12a2 2 0 0 0 2-2v-1a2 2 0 0 0-2-2H2z"/><path d="M5 11.5a.5.5 0 1 1-1 0 .5.5 0 0 1 1 0zm-2 0a.5.5 0 1 1-1 0 .5.5 0 0 1 1 0zM14 3a1 1 0 0 1 1 1v1a1 1 0 0 1-1 1H2a1 1 0 0 1-1-1V4a1 1 0 0 1 1-1h12zM2 2a2 2 0 0 0-2 2v1a2 2 0 0 0 2 2h12a2 2 0 0 0 2-2V4a2 2 0 0 0-2-2H2z"/><path d="M5 4.5a.5.5 0 1 1-1 0 .5.5 0 0 1 1 0zm-2 0a.5.5 0 1 1-1 0 .5.5 0 0 1 1 0z"/></g></symbol>
<symbol id="icon-headphones" viewBox="0 0 24 24"><g transform="scale(1.5)" fill="currentColor"><path d="M8 3a5 5 0 0 0-5 5v1h1a1 1 0 0 1 1 1v3a1 1 0 0 1-1 1H3a1 1 0 0 1-1-1V8a6 6 0 1 1 12 0v5a1 1 0 0 1-1 1h-1a1 1 0 0 1-1-1v-3a1 1 0 0 1 1-1h1V8a5 5 0 0 0-5-5z"/></g></symbol>
<symbol id="icon-house-door" viewBox="0 0 24 24"><g transform="scale(1.5)" fill="currentColor"><path d="M8.354 1.146a.5.5 0 0 0-.708 0l-6 6A.5.5 0 0 0 1.5 7.5v7a.5.5 0 0 0 .5.5h4.5a.5.5 0 0 0 .5-.5v-4h2v4a.5.5 0 0 0 .5.5H14a.5.5 0 0 0 .5-.5v-7a.5.5 0 0 0-.146-.354L13 5.793V2.5a.5.5 0 0 0-.5-.5h-1a.5.5 0 0 0-.5.5v1.293L8.354 1.146zM2.5 14V7.707l5.5-5.5 5.5 5.5V14H10v-4a.5.5 0 0 0-.5-.5h-3a.5.5 0 0 0-.5.5v4H2.5z"/></g></symbol>
<symbol id="icon-house-door-fill" viewBox="0 0 24 24"><g transform="scale(1.5)" fill="currentColor"><path d="M6.5 14.5v-3.505c0-.245.25-.495.5-.495h2c.25 0 .5.25.5.5v3.5a.5.5 0 0 0 .5.5h4a.5.5 0 0 0 .5-.5v-7a.5.5 0 0 0-.146-.354L13 5.793V2.5a.5.5 0 0 0-.5-.5h-1a.5.5 0 0 0-.5.5v1.293L8.354 1.146a.5.5 0 0 0-.708 0l-6 6A.5.5 0 0 0 1.5 7.5v7a.5.5 0 0 0 .5.5h4a.5.5 0 0 0 .5-.5z"/></g></symbol>
<symbol id="icon-image" viewBox="0 0 24 24"><g transform="scale(1.5)" fill="currentColor"><path d="M6.002 5.5a1.5 1.5 0 1 1-3 0 1.5 1.5 0 0 1 3 0z"/><path d="M2.002 1a2 2 0 0 0-2 2v10a2 2 0 0 0 2 2h12a2 2 0 0 0 2-2V3a2 2 0 0 0-2-2h-12zm12 1a1 1 0 0 1 1 1v6.5l-3.777-1.947a.5.5 0 0 0-.577.093l-3.71 3.71-2.66-1.772a.5.5 0 0 0-.63.062L1.002 12V3a1 1 0 0 1 1-1h12z"/></g></symbol>
<symbol id="icon-info-circle" viewBox="0 0 24 24"><g transform="scale(1.5)" fill="currentColor"><path d="M8 15A7 7 0 1 1 8 1a7 7 0 0 1 0 14zm0 1A8 8 0 1 0 8 0a8 8 0 0 0 0 16z"/><path d="m8.93 6.588-2.29.287-.082.38.45.083c.294.07.352.176.288.469l-.738 3.468c-.194.897.105 1.319.808 1.319.545 0 1.178-.252 1.465-.598l.088-.416c-.2.176-.492.246-.686.246-.275 0-.375-.193-.304-.533L8.93 6.588zM9 4.5a1 1 0 1 1-2 0 1 1 0 0 1 2 0z"/></g></symbol>
<symbol id="icon-info-circle-fill" viewBox="0 0 24 24"><g transform="scale(1.5)" fill="currentColor"><path d="M8 16A8 8 0 1 0 8 0a8 8 0 0 0 0 16zm.93-9.412-1 4.705c-.07.34.029.533.304.533.194 0 .487-.07.686-.246l-.088.416c-.287.346-.92.598-1.465.598-.703 0-1.002-.422-.808-1.319l.738-3.468c.064-.293.006-.399-.287-.47l-.451-.081.082-.381 2.29-.287zM8 5.5a1 1 0 1 1 0-2 1 1 0 0 1 0 2z"/></g></symbol>
<symbol id="icon-journal-text" viewBox="0 0 24 24"><g transform="scale(1.5)" fill="currentColor"><path d="M5 10.5a.5.5 0 0 1 .5-.5h2a.5.5 0 0 1 0 1h-2a.5.5 0 0 1-.5-.5zm0-2a.5.5 0 0 1 .5-.5h5a.5.5 0 0 1 0 1h-5a.5.5 0 0 1-.5-.5zm0-2a.5.5 0 0 1 .5-.5h5a.5.5 0 0 1 0 1h-5a.5.5 0 0 1-.5-.5zm0-2a.5.5 0 0 1 .5-.5h5a.5.5 0 0 1 0 1h-5a.5.5 0 0 1-.5-.5z"/><path d="M3 0h10a2 2 0 0 1 2 2v12a2 2 0 0 1-2 2H3a2 2 0 0 1-2-2v-1h1v1a1 1 0 0 0 1 1h10a1 1 0 0 0 1-1V2a1 1 0 0 0-1-1H3a1 1 0 0 0-1 1v1H1V2a2 2 0 0 1 2-2z"/><path d="M1 5v-.5a.5.5 0 0 1 1 0V5h.5a.5.5 0 0 1 0 1h-2a.5.5 0 0 1 0-1H1zm0 3v-.5a.5.5 0 0 1 1 0V8h.5a.5.5 0 0 1 0 1h-2a.5.5 0 0 1 0-1H1zm0 3v-.5a.5.5 0 0 1 1 0v.5h.5a.5.5 0 0 1 0 1h-2a.5.5 0 0 1 0-1H1z"/></g></symbol>
<symbol id="icon-journals" viewBox="0 0 24 24"><g transform="scale(1.5)" fill="currentColor"><path d="M5 0h8a2 2 0 0 1 2 2v10a2 2 0 0 1-2 2 2 2 0 0 1-2 2H3a2 2 0 0 1-2-2h1a1 1 0 0 0 1 1h8a1 1 0 0 0 1-1V4a1 1 0 0 0-1-1H3a1 1 0 0 0-1 1H1a2 2 0 0 1 2-2h8a2 2 0 0 1 2 2v9a1 1 0 0 0 1-1V2a1 1 0 0 0-1-1H5a1 1 0 0 0-1 1H3a2 2 0 0 1 2-2z"/><path d="M1 6v-.5a.5.5 0 0 1 1 0V6h.5a.5.5 0 0 1 0 1h-2a.5.5 0 0 1 0-1H1zm0 3v-.5a.5.5 0 0 1 1 0V9h.5a.5.5 0 0 1 0 1h-2a.5.5 0 0 1 0-1H1zm0 2.5v.5H.5a.5.5 0 0 0 0 1h2a.5.5 0 0 0 0-1H2v-.5a.5.5 0 0 0-1 0z"/></g></symbol>
<symbol id="icon-key" viewBox="0 0 24 24"><g transform="scale(1.5)" fill="currentColor"><path d="M0 8a4 4 0 0 1 7.465-2H14a.5.5 0 0 1 .354.146l1.5 1.5a.5.5 0 0 1 0 .708l-1.5 1.5a.5.5 0 0 1-.708 0L13 9.207l-.646.647a.5.5 0 0 1-.708 0L11 9.207l-.646.647a.5.5 0 0 1-.708 0L9 9.207l-.646.647A.5.5 0 0 1 8 10h-.535A4 4 0 0 1 0 8zm4-3a3 3 0 1 0 2.712 4.285A.5.5 0 0 1 7.163 9h.63l.853-.854a.5.5 0 0 1 .708 0l.646.647.646-.647a.5.5 0 0 1 .708 0l.646.647.646-.647a.5.5 0 0 1 .708 0l.646.647.793-.793-1-1h-6.63a.5.5 0 0 1-.451-.285A3 3 0 0 0 4 5z"/><path d="M4 8a1 1 0 1 1-2 0 1 1 0 0 1 2 0z"/></g></symbol>
<symbol id="icon-layers" viewBox="0 0 24 24"><g transform="scale(1.5)" fill="currentColor"><path d="M8.235 1.559a.5.5 0 0 0-.47 0l-7.5 4a.5.5 0 0 0 0 .882L3.188 8 .264 9.559a.5.5 0 0 0 0 .882l7.5 4a.5.5 0 0 0 .47 0l7.5-4a.5.5 0 0 0 0-.882L12.813 8l2.922-1.559a.5.5 0 0 0 0-.882l-7.5-4zm3.515 7.008L14.438 10 8 13.433 1.562 10 4.25 8.567l3.515 1.874a.5.5 0 0 0 .47 0l3.515-1.874zM8 9.433 1.562 6 8 2.567 14.438 6 8 9.433z"/></g></symbol>
<symbol id="icon-layout-three-columns" viewBox="0 0 24 24"><g transform="scale(1.5)" fill="currentColor"><path d="M0 1.5A1.5 1.5 0 0 1 1.5 0h13A1.5 1.5 0 0 1 16 1.5v13a1.5 1.5 0 0 1-1.5 1.5h-13A1.5 1.5 0 0 1 0 14.5v-13zM1.5 1a.5.5 0 0 0-.5.5v13a.5.5 0 0 0 .5.5H5V1H1.5zM10 15V1H6v14h4zm1 0h3.5a.5.5 0 0 0 .5-.5v-13a.5.5 0 0 0-.5-.5H11v14z"/></g></symbol>
<symbol id="icon-lightbulb" viewBox="0 0 24 24"><g transform="scale(1.5)" fill="currentColor"><path d="M2 6a6 6 0 1 1 10.174 4.31c-.203.196-.359.4-.453.619l-.762 1.769A.5.5 0 0 1 10.5 13a.5.5 0 0 1 0 1 .5.5 0 0 1 0 1l-.224.447a1 1 0 0 1-.894.553H6.618a1 1 0 0 1-.894-.553L5.5 15a.5.5 0 0 1 0-1 .5.5 0 0 1 0-1 .5.5 0 0 1-.46-.302l-.761-1.77a1.964 1.964 0 0 0-.453-.618A5.984 5.984 0 0 1 2 6zm6-5a5 5 0 0 0-3.479 8.592c.263.254.514.564.676.941L5.83 12h4.342l.632-1.467c.162-.377.413-.687.676-.941A5 5 0 0 0 8 1z"/></g></symbol>
<symbol id="icon-link45deg" viewBox="0 0 24 24"><g transform="scale(1.5)" fill="currentColor"><path d="M4.715 6.542 3.343 7.914a3 3 0 1 0 4.243 4.243l1.828-1.829A3 3 0 0 0 8.586 5.5L8 6.086a1.002 1.002 0 0 0-.154.199 2 2 0 0 1 .861 3.337L6.88 11.45a2 2 0 1 1-2.83-2.83l.793-.792a4.018 4.018 0 0 1-.128-1.287z"/><path d="M6.586 4.672A3 3 0 0 0 7.414 9.5l.775-.776a2 2 0 0 1-.896-3.346L9.12 3.55a2 2 0 1 1 2.83 2.83l-.793.792c.112.42.155.855.128 1.287l1.372-1.372a3 3 0 1 0-4.243-4.243L6.586 4.672z"/></g></symbol>
<symbol id="icon-list" viewBox="0 0 24 24"><g transform="scale(1.5)" fill="currentColor"><path fill-rule="evenodd" d="M2.5 12a.5.5 0 0 1 .5-.5h10a.5.5 0 0 1 0 1H3a.5.5 0 0 1-.5-.5zm0-4a.5.5 0 0 1 .5-.5h10a.5.5 0 0 1 0 1H3a.5.5 0 0 1-.5-.5zm0-4a.5.5 0 0 1 .5-.5h10a.5.5 0 0 1 0 1H3a.5.5 0 0 1-.5-.5z"/></g></symbol>
<symbol id="icon-list-task" viewBox="0 0 24 24"><g transform="scale(1.5)" fill="currentColor"><path fill-rule="evenodd" d="M2 2.5a.5.5 0 0 0-.5.5v1a.5.5 0 0 0 .5.5h1a.5.5 0 0 0 .5-.5V3a.5.5 0 0 0-.5-.5H2zM3 3H2v1h1V3z"/><path d="M5 3.5a.5.5 0 0 1 .5-.5h9a.5.5 0 0 1 0 1h-9a.5.5 0 0 1-.5-.5zM5.5 7a.5.5 0 0 0 0 1h9a.5.5 0 0 0 0-1h-9zm0 4a.5.5 0 0 0 0 1h9a.5.5 0 0 0 0-1h-9z"/><path fill-rule="evenodd" d="M1.5 7a.5.5 0 0 1 .5-.5h1a.5.5 0 0 1 .5.5v1a.5.5 0 0 1-.5.5H2a.5.5 0 0 1-.5-.5V7zM2 7h1v1H2V7zm0 3.5a.5.5 0 0 0-.5.5v1a.5.5 0 0 0 .5.5h1a.5.5 0 0 0 .5-.5v-1a.5.5 0 0 0-.5-.5H2zm1 .5H2v1h1v-1z"/></g></symbol>
<symbol id="icon-list-ul" viewBox="0 0 24 24"><g transform="scale(1.5)" fill="currentColor"><path fill-rule="evenodd" d="M5 11.5a.5.5 0 0 1 .5-.5h9a.5.5 0 0 1 0 1h-9a.5.5 0 0 1-.5-.5zm0-4a.5.5 0 0 1 .5-.5h9a.5.5 0 0 1 0 1h-9a.5.5 0 0 1-.5-.5zm0-4a.5.5 0 0 1 .5-.5h9a.5.5 0 0 1 0 1h-9a.5.5 0 0 1-.5-.5zm-3 1a1 1 0 1 0 0-2 1 1 0 0 0 0 2zm0 4a1 1 0 1 0 0-2 1 1 0 0 0 0 2zm0 4a1 1 0 1 0 0-2 1 1 0 0 0 0 2z"/></g></symbol>
<symbol id="icon-lock" viewBox="0 0 24 24"><g transform="scale(1.5)" fill="currentColor"><path d="M8 1a2 2 0 0 1 2 2v4H6V3a2 2 0 0 1 2-2zm3 6V3a3 3 0 0 0-6 0v4a2 2 0 0 0-2 2v5a2 2 0 0 0 2 2h6a2 2 0 0 0 2-2V9a2 2 0 0 0-2-2zM5 8h6a1 1 0 0 1 1 1v5a1 1 0 0 1-1 1H5a1 1 0 0 1-1-1V9a1 1 0 0 1 1-1z"/></g></symbol>
<symbol id="icon-lock-fill" viewBox="0 0 24 24"><g transform="scale(1.5)" fill="currentColor"><path d="M8 1a2 2 0 0 1 2 2v4H6V3a2 2 0 0 1 2-2zm3 6V3a3 3 0 0 0-6 0v4a2 2 0 0 0-2 2v5a2 2 0 0 0 2 2h6a2 2 0 0 0 2-2V9a2 2 0 0 0-2-2z"/></g></symbol>
<symbol id="icon-moon" viewBox="0 0 24 24"><g transform="scale(1.5)" fill="currentColor"><path d="M6 .278a.768.768 0 0 1 .08.858 7.208 7.208 0 0 0-.878 3.46c0 4.021 3.278 7.277 7.318 7.277.527 0 1.04-.055 1.533-.16a.787.787 0 0 1 .81.316.733.733 0 0 1-.031.893A8.349 8.349 0 0 1 8.344 16C3.734 16 0 12.286 0 7.71 0 4.266 2.114 1.312 5.124.06A.752.752 0 0 1 6 .278zM4.858 1.311A7.269 7.269 0 0 0 1.025 7.71c0 4.02 3.279 7.276 7.319 7.276a7.316 7.316 0 0 0 5.205-2.162c-.337.042-.68.063-1.029.063-4.61 0-8.343-3.714-8.343-8.29 0-1.167.242-2.278.681-3.286z"/></g></symbol>
<symbol id="icon-pause-circle" viewBox="0 0 24 24"><g transform="scale(1.5)" fill="currentColor"><path d="M8 15A7 7 0 1 1 8 1a7 7 0 0 1 0 14zm0 1A8 8 0 1 0 8 0a8 8 0 0 0 0 16z"/><path d="M5 6.25a1.25 1.25 0 1 1 2.5 0v3.5a1.25 1.25 0 1 1-2.5 0v-3.5zm3.5 0a1.25 1.25 0 1 1 2.5 0v3.5a1.25 1.25 0 1 1-2.5 0v-3.5z"/></g></symbol>
<symbol id="icon-pause-fill" viewBox="0 0 24 24"><g transform="scale(1.5)" fill="currentColor"><path d="M5.5 3.5A1.5 1.5 0 0 1 7 5v6a1.5 1.5 0 0 1-3 0V5a1.5 1.5 0 0 1 1.5-1.5zm5 0A1.5 1.5 0 0 1 12 5v6a1.5 1.5 0 0 1-3 0V5a1.5 1.5 0 0 1 1.5-1.5z"/></g></symbol>
<symbol id="icon-pencil" viewBox="0 0 24 24"><g transform="scale(1.5)" fill="currentColor"><path d="M12.146.146a.5.5 0 0 1 .708 0l3 3a.5.5 0 0 1 0 .708l-10 10a.5.5 0 0 1-.168.11l-5 2a.5.5 0 0 1-.65-.65l2-5a.5.5 0 0 1 .11-.168l10-10zM11.207 2.5 13.5 4.793 14.793 3.5 12.5 1.207 11.207 2.5zm1.586 3L10.5 3.207 4 9.707V10h.5a.5.5 0 0 1 .5.5v.5h.5a.5.5 0 0 1 .5.5v.5h.293l6.5-6.5zm-9.761 5.175-.106.106-1.528 3.821 3.821-1.528.106-.106A.5.5 0 0 1 5 12.5V12h-.5a.5.5 0 0 1-.5-.5V11h-.5a.5.5 0 0 1-.468-.325z"/></g></symbol>
<symbol id="icon-pencil-square" viewBox="0 0 24 24"><g transform="scale(1.5)" fill="currentColor"><path d="M15.502 1.94a.5.5 0 0 1 0 .706L14.459 3.69l-2-2L13.502.646a.5.5 0 0 1 .707 0l1.293 1.293zm-1.75 2.456-2-2L4.939 9.21a.5.5 0 0 0-.121.196l-.805 2.414a.25.25 0 0 0 .316.316l2.414-.805a.5.5 0 0 0 .196-.12l6.813-6.814z"/><path fill-rule="evenodd" d="M1 13.5A1.5 1.5 0 0 0 2.5 15h11a1.5 1.5 0 0 0 1.5-1.5v-6a.5.5 0 0 0-1 0v6a.5.5 0 0 1-.5.5h-11a.5.5 0 0 1-.5-.5v-11a.5.5 0 0 1 .5-.5H9a.5.5 0 0 0 0-1H2.5A1.5 1.5 0 0 0 1 2.5v11z"/></g></symbol>
<symbol id="icon-people" viewBox="0 0 24 24"><g transform="scale(1.5)" fill="currentColor"><path d="M15 14s1 0 1-1-1-4-5-4-5 3-5 4 1 1 1 1h8zm-7.978-1A.261.261 0 0 1 7 12.996c.001-.264.167-1.03.76-1.72C8.312 10.629 9.282 10 11 10c1.717 0 2.687.63 3.24 1.276.593.69.758 1.457.76 1.72l-.008.002a.274.274 0 0 1-.014.002H7.022zM11 7a2 2 0 1 0 0-4 2 2 0 0 0 0 4zm3-2a3 3 0 1 1-6 0 3 3 0 0 1 6 0zM6.936 9.28a5.88 5.88 0 0 0-1.23-.247A7.35 7.35 0 0 0 5 9c-4 0-5 3-5 4 0 .667.333 1 1 1h4.216A2.238 2.238 0 0 1 5 13c0-1.01.377-2.042 1.09-2.904.243-.294.526-.569.846-.816zM4.92 10A5.493 5.493 0 0 0 4 13H1c0-.26.164-1.03.76-1.724.545-.636 1.492-1.256 3.16-1.275zM1.5 5.5a3 3 0 1 1 6 0 3 3 0 0 1-6 0zm3-2a2 2 0 1 0 0 4 2 2 0 0 0 0-4z"/></g></symbol>
<symbol id="icon-person" viewBox="0 0 24 24"><g transform="scale(1.5)" fill="currentColor"><path d="M8 8a3 3 0 1 0 0-6 3 3 0 0 0 0 6zm2-3a2 2 0 1 1-4 0 2 2 0 0 1 4 0zm4 8c0 1-1 1-1 1H3s-1 0-1-1 1-4 6-4 6 3 6 4zm-1-.004c-.001-.246-.154-.986-.832-1.664C11.516 10.68 10.289 10 8 10c-2.29 0-3.516.68-4.168 1.332-.678.678-.83 1.418-.832 1.664h10z"/></g></symbol>
<symbol id="icon-person-badge" viewBox="0 0 24 24"><g transform="scale(1.5)" fill="currentColor"><path d="M6.5 2a.5.5 0 0 0 0 1h3a.5.5 0 0 0 0-1h-3zM11 8a3 3 0 1 1-6 0 3 3 0 0 1 6 0z"/><path d="M4.5 0A2.5 2.5 0 0 0 2 2.5V14a2 2 0 0 0 2 2h8a2 2 0 0 0 2-2V2.5A2.5 2.5 0 0 0 11.5 0h-7zM3 2.5A1.5 1.5 0 0 1 4.5 1h7A1.5 1.5 0 0 1 13 2.5v10.795a4.2 4.2 0 0 0-.776-.492C11.392 12.387 10.063 12 8 12s-3.392.387-4.224.803a4.2 4.2 0 0 0-.776.492V2.5z"/></g></symbol>
<symbol id="icon-person-dash" viewBox="0 0 24 24"><g transform="scale(1.5)" fill="currentColor"><path d="M6 8a3 3 0 1 0 0-6 3 3 0 0 0 0 6zm2-3a2 2 0 1 1-4 0 2 2 0 0 1 4 0zm4 8c0 1-1 1-1 1H1s-1 0-1-1 1-4 6-4 6 3 6 4zm-1-.004c-.001-.246-.154-.986-.832-1.664C9.516 10.68 8.289 10 6 10c-2.29 0-3.516.68-4.168 1.332-.678.678-.83 1.418-.832 1.664h10z"/><path fill-rule="evenodd" d="M11 7.5a.5.5 0 0 1 .5-.5h4a.5.5 0 0 1 0 1h-4a.5.5 0 0 1-.5-.5z"/></g></symbol>
<symbol id="icon-person-fill" viewBox="0 0 24 24"><g transform="scale(1.5)" fill="currentColor"><path d="M3 14s-1 0-1-1 1-4 6-4 6 3 6 4-1 1-1 1H3zm5-6a3 3 0 1 0 0-6 3 3 0 0 0 0 6z"/></g></symbol>
<symbol id="icon-person-plus" viewBox="0 0 24 24"><g transform="scale(1.5)" fill="currentColor"><path d="M6 8a3 3 0 1 0 0-6 3 3 0 0 0 0 6zm2-3a2 2 0 1 1-4 0 2 2 0 0 1 4 0zm4 8c0 1-1 1-1 1H1s-1 0-1-1 1-4 6-4 6 3 6 4zm-1-.004c-.001-.246-.154-.986-.832-1.664C9.516 10.68 8.289 10 6 10c-2.29 0-3.516.68-4.168 1.332-.678.678-.83 1.418-.832 1.664h10z"/><path fill-rule="evenodd" d="M13.5 5a.5.5 0 0 1 .5.5V7h1.5a.5.5 0 0 1 0 1H14v1.5a.5.5 0 0 1-1 0V8h-1.5a.5.5 0 0 1 0-1H13V5.5a.5.5 0 0 1 .5-.5z"/></g></symbol>
<symbol id="icon-phone" viewBox="0 0 24 24"><g transform="scale(1.5)" fill="currentColor"><path d="M11 1a1 1 0 0 1 1 1v12a1 1 0 0 1-1 1H5a1 1 0 0 1-1-1V2a1 1 0 0 1 1-1h6zM5 0a2 2 0 0 0-2 2v12a2 2 0 0 0 2 2h6a2 2 0 0 0 2-2V2a2 2 0 0 0-2-2H5z"/><path d="M8 14a1 1 0 1 0 0-2 1 1 0 0 0 0 2z"/></g></symbol>
<symbol id="icon-play-circle" viewBox="0 0 24 24"><g transform="scale(1.5)" fill="currentColor"><path d="M8 15A7 7 0 1 1 8 1a7 7 0 0 1 0 14zm0 1A8 8 0 1 0 8 0a8 8 0 0 0 0 16z"/><path d="M6.271 5.055a.5.5 0 0 1 .52.038l3.5 2.5a.5.5 0 0 1 0 .814l-3.5 2.5A.5.5 0 0 1 6 10.5v-5a.5.5 0 0 1 .271-.445z"/></g></symbol>
<symbol id="icon-play-fill" viewBox="0 0 24 24"><g transform="scale(1.5)" fill="currentColor"><path d="m11.596 8.697-6.363 3.692c-.54.313-1.233-.066-1.233-.697V4.308c0-.63.692-1.01 1.233-.696l6.363 3.692a.802.802 0 0 1 0 1.393z"/></g></symbol>
<symbol id="icon-power" viewBox="0 0 24 24"><g transform="scale(1.5)" fill="currentColor"><path d="M7.5 1v7h1V1h-1z"/><path d="M3 8.812a4.999 4.999 0 0 1 2.578-4.375l-.485-.874A6 6 0 1 0 11 3.616l-.501.865A5 5 0 1 1 3 8.812z"/></g></symbol>
<symbol id="icon-save" viewBox="0 0 24 24"><g transform="scale(1.5)" fill="currentColor"><path d="M2 1a1 1 0 0 0-1 1v12a1 1 0 0 0 1 1h12a1 1 0 0 0 1-1V2a1 1 0 0 0-1-1H9.5a1 1 0 0 0-1 1v7.293l2.646-2.647a.5.5 0 0 1 .708.708l-3.5 3.5a.5.5 0 0 1-.708 0l-3.5-3.5a.5.5 0 1 1 .708-.708L7.5 9.293V2a2 2 0 0 1 2-2H14a2 2 0 0 1 2 2v12a2 2 0 0 1-2 2H2a2 2 0 0 1-2-2V2a2 2 0 0 1 2-2h2.5a.5.5 0 0 1 0 1H2z"/></g></symbol>
<symbol id="icon-search" viewBox="0 0 24 24"><g transform="scale(1.5)" fill="currentColor"><path d="M11.742 10.344a6.5 6.5 0 1 0-1.397 1.398h-.001c.03.04.062.078.098.115l3.85 3.85a1 1 0 0 0 1.415-1.414l-3.85-3.85a1.007 1.007 0 0 0-.115-.1zM12 6.5a5.5 5.5 0 1 1-11 0 5.5 5.5 0 0 1 11 0z"/></g></symbol>
<symbol id="icon-share" viewBox="0 0 24 24"><g transform="scale(1.5)" fill="currentColor"><path d="M13.5 1a1.5 1.5 0 1 0 0 3 1.5 1.5 0 0 0 0-3zM11 2.5a2.5 2.5 0 1 1 .603 1.628l-6.718 3.12a2.499 2.499 0 0 1 0 1.504l6.718 3.12a2.5 2.5 0 1 1-.488.876l-6.718-3.12a2.5 2.5 0 1 1 0-3.256l6.718-3.12A2.5 2.5 0 0 1 11 2.5zm-8.5 4a1.5 1.5 0 1 0 0 3 1.5 1.5 0 0 0 0-3zm11 5.5a1.5 1.5 0 1 0 0 3 1.5 1.5 0 0 0 0-3z"/></g></symbol>
<symbol id="icon-shield-check" viewBox="0 0 24 24"><g transform="scale(1.5)" fill="currentColor"><path d="M5.338 1.59a61.44 61.44 0 0 0-2.837.856.481.481 0 0 0-.328.39c-.554 4.157.726 7.19 2.253 9.188a10.725 10.725 0 0 0 2.287 2.233c.346.244.652.42.893.533.12.057.218.095.293.118a.55.55 0 0 0 .101.025.615.615 0 0 0 .1-.025c.076-.023.174-.061.294-.118.24-.113.547-.29.893-.533a10.726 10.726 0 0 0 2.287-2.233c1.527-1.997 2.807-5.031 2.253-9.188a.48.48 0 0 0-.328-.39c-.651-.213-1.75-.56-2.837-.855C9.552 1.29 8.531 1.067 8 1.067c-.53 0-1.552.223-2.662.524zM5.072.56C6.157.265 7.31 0 8 0s1.843.265 2.928.56c1.11.3 2.229.655 2.887.87a1.54 1.54 0 0 1 1.044 1.262c.596 4.477-.787 7.795-2.465 9.99a11.775 11.775 0 0 1-2.517 2.453 7.159 7.159 0 0 1-1.048.625c-.28.132-.581.24-.829.24s-.548-.108-.829-.24a7.158 7.158 0 0 1-1.048-.625 11.777 11.777 0 0 1-2.517-2.453C1.928 10.487.545 7.169 1.141 2.692A1.54 1.54 0 0 1 2.185 1.43 62.456 62.456 0 0 1 5.072.56z"/><path d="M10.854 5.146a.5.5 0 0 1 0 .708l-3 3a.5.5 0 0 1-.708 0l-1.5-1.5a.5.5 0 1 1 .708-.708L7.5 7.793l2.646-2.647a.5.5 0 0 1 .708 0z"/></g></symbol>
<symbol id="icon-shield-lock" viewBox="0 0 24 24"><g transform="scale(1.5)" fill="currentColor"><path d="M5.338 1.59a61.44 61.44 0 0 0-2.837.856.481.481 0 0 0-.328.39c-.554 4.157.726 7.19 2.253 9.188a10.725 10.725 0 0 0 2.287 2.233c.346.244.652.42.893.533.12.057.218.095.293.118a.55.55 0 0 0 .101.025.615.615 0 0 0 .1-.025c.076-.023.174-.061.294-.118.24-.113.547-.29.893-.533a10.726 10.726 0 0 0 2.287-2.233c1.527-1.997 2.807-5.031 2.253-9.188a.48.48 0 0 0-.328-.39c-.651-.213-1.75-.56-2.837-.855C9.552 1.29 8.531 1.067 8 1.067c-.53 0-1.552.223-2.662.524zM5.072.56C6.157.265 7.31 0 8 0s1.843.265 2.928.56c1.11.3 2.229.655 2.887.87a1.54 1.54 0 0 1 1.044 1.262c.596 4.477-.787 7.795-2.465 9.99a11.775 11.775 0 0 1-2.517 2.453 7.159 7.159 0 0 1-1.048.625c-.28.132-.581.24-.829.24s-.548-.108-.829-.24a7.158 7.158 0 0 1-1.048-.625 11.777 11.777 0 0 1-2.517-2.453C1.928 10.487.545 7.169 1.141 2.692A1.54 1.54 0 0 1 2.185 1.43 62.456 62.456 0 0 1 5.072.56z"/><path d="M9.5 6.5a1.5 1.5 0 0 1-1 1.415l.385 1.99a.5.5 0 0 1-.491.595h-.788a.5.5 0 0 1-.49-.595l.384-1.99a1.5 1.5 0 1 1 2-1.415z"/></g></symbol>
<symbol id="icon-slash-circle" viewBox="0 0 24 24"><g transform="scale(1.5)" fill="currentColor"><path d="M8 15A7 7 0 1 1 8 1a7 7 0 0 1 0 14zm0 1A8 8 0 1 0 8 0a8 8 0 0 0 0 16z"/><path d="M11.354 4.646a.5.5 0 0 0-.708 0l-6 6a.5.5 0 0 0 .708.708l6-6a.5.5 0 0 0 0-.708z"/></g></symbol>
<symbol id="icon-sliders" viewBox="0 0 24 24"><g transform="scale(1.5)" fill="currentColor"><path fill-rule="evenodd" d="M11.5 2a1.5 1.5 0 1 0 0 3 1.5 1.5 0 0 0 0-3zM9.05 3a2.5 2.5 0 0 1 4.9 0H16v1h-2.05a2.5 2.5 0 0 1-4.9 0H0V3h9.05zM4.5 7a1.5 1.5 0 1 0 0 3 1.5 1.5 0 0 0 0-3zM2.05 8a2.5 2.5 0 0 1 4.9 0H16v1H6.95a2.5 2.5 0 0 1-4.9 0H0V8h2.05zm9.45 4a1.5 1.5 0 1 0 0 3 1.5 1.5 0 0 0 0-3zm-2.45 1a2.5 2.5 0 0 1 4.9 0H16v1h-2.05a2.5 2.5 0 0 1-4.9 0H0v-1h9.05z"/></g></symbol>
<symbol id="icon-snow" viewBox="0 0 24 24"><g transform="scale(1.5)" fill="currentColor"><path d="M8 16a.5.5 0 0 1-.5-.5v-1.293l-.646.647a.5.5 0 0 1-.707-.708L7.5 12.793V8.866l-3.4 1.963-.496 1.85a.5.5 0 1 1-.966-.26l.237-.882-1.12.646a.5.5 0 0 1-.5-.866l1.12-.646-.884-.237a.5.5 0 1 1 .26-.966l1.848.495L7 8 3.6 6.037l-1.85.495a.5.5 0 0 1-.258-.966l.883-.237-1.12-.646a.5.5 0 1 1 .5-.866l1.12.646-.237-.883a.5.5 0 1 1 .966-.258l.495 1.849L7.5 7.134V3.207L6.147 1.854a.5.5 0 1 1 .707-.708l.646.647V.5a.5.5 0 1 1 1 0v1.293l.647-.647a.5.5 0 1 1 .707.708L8.5 3.207v3.927l3.4-1.963.496-1.85a.5.5 0 1 1 .966.26l-.236.882 1.12-.646a.5.5 0 0 1 .5.866l-1.12.646.883.237a.5.5 0 1 1-.26.966l-1.848-.495L9 8l3.4 1.963 1.849-.495a.5.5 0 0 1 .259.966l-.883.237 1.12.646a.5.5 0 0 1-.5.866l-1.12-.646.236.883a.5.5 0 1 1-.966.258l-.495-1.849-3.4-1.963v3.927l1.353 1.353a.5.5 0 0 1-.707.708l-.647-.647V15.5a.5.5 0 0 1-.5.5z"/></g></symbol>
<symbol id="icon-speedometer2" viewBox="0 0 24 24"><g transform="scale(1.5)" fill="currentColor"><path d="M8 4a.5.5 0 0 1 .5.5V6a.5.5 0 0 1-1 0V4.5A.5.5 0 0 1 8 4zM3.732 5.732a.5.5 0 0 1 .707 0l.915.914a.5.5 0 1 1-.708.708l-.914-.915a.5.5 0 0 1 0-.707zM2 10a.5.5 0 0 1 .5-.5h1.586a.5.5 0 0 1 0 1H2.5A.5.5 0 0 1 2 10zm9.5 0a.5.5 0 0 1 .5-.5h1.5a.5.5 0 0 1 0 1H12a.5.5 0 0 1-.5-.5zm.754-4.246a.389.389 0 0 0-.527-.02L7.547 9.31a.91.91 0 1 0 1.302 1.258l3.434-4.297a.389.389 0 0 0-.029-.518z"/><path fill-rule="evenodd" d="M0 10a8 8 0 1 1 15.547 2.661c-.442 1.253-1.845 1.602-2.932 1.25C11.309 13.488 9.475 13 8 13c-1.474 0-3.31.488-4.615.911-1.087.352-2.49.003-2.932-1.25A7.988 7.988 0 0 1 0 10zm8-7a7 7 0 0 0-6.603 9.329c.203.575.923.876 1.68.63C4.397 12.533 6.358 12 8 12s3.604.532 4.923.96c.757.245 1.477-.056 1.68-.631A7 7 0 0 0 8 3z"/></g></symbol>
<symbol id="icon-stars" viewBox="0 0 24 24"><g transform="scale(1.5)" fill="currentColor"><path d="M7.657 6.247c.11-.33.576-.33.686 0l.645 1.937a2.89 2.89 0 0 0 1.829 1.828l1.936.645c.33.11.33.576 0 .686l-1.937.645a2.89 2.89 0 0 0-1.828 1.829l-.645 1.936a.361.361 0 0 1-.686 0l-.645-1.937a2.89 2.89 0 0 0-1.828-1.828l-1.937-.645a.361.361 0 0 1 0-.686l1.937-.645a2.89 2.89 0 0 0 1.828-1.828l.645-1.937zM3.794 1.148a.217.217 0 0 1 .412 0l.387 1.162c.173.518.579.924 1.097 1.097l1.162.387a.217.217 0 0 1 0 .412l-1.162.387A1.734 1.734 0 0 0 4.593 5.69l-.387 1.162a.217.217 0 0 1-.412 0L3.407 5.69A1.734 1.734 0 0 0 2.31 4.593l-1.162-.387a.217.217 0 0 1 0-.412l1.162-.387A1.734 1.734 0 0 0 3.407 2.31l.387-1.162zM10.863.099a.145.145 0 0 1 .274 0l.258.774c.115.346.386.617.732.732l.774.258a.145.145 0 0 1 0 .274l-.774.258a1.156 1.156 0 0 0-.732.732l-.258.774a.145.145 0 0 1-.274 0l-.258-.774a1.156 1.156 0 0 0-.732-.732L9.1 2.137a.145.145 0 0 1 0-.274l.774-.258c.346-.115.617-.386.732-.732L10.863.1z"/></g></symbol>
<symbol id="icon-stop-fill" viewBox="0 0 24 24"><g transform="scale(1.5)" fill="currentColor"><path d="M5 3.5h6A1.5 1.5 0 0 1 12.5 5v6a1.5 1.5 0 0 1-1.5 1.5H5A1.5 1.5 0 0 1 3.5 11V5A1.5 1.5 0 0 1 5 3.5z"/></g></symbol>
<symbol id="icon-sun" viewBox="0 0 24 24"><g transform="scale(1.5)" fill="currentColor"><path d="M8 11a3 3 0 1 1 0-6 3 3 0 0 1 0 6zm0 1a4 4 0 1 0 0-8 4 4 0 0 0 0 8zM8 0a.5.5 0 0 1 .5.5v2a.5.5 0 0 1-1 0v-2A.5.5 0 0 1 8 0zm0 13a.5.5 0 0 1 .5.5v2a.5.5 0 0 1-1 0v-2A.5.5 0 0 1 8 13zm8-5a.5.5 0 0 1-.5.5h-2a.5.5 0 0 1 0-1h2a.5.5 0 0 1 .5.5zM3 8a.5.5 0 0 1-.5.5h-2a.5.5 0 0 1 0-1h2A.5.5 0 0 1 3 8zm10.657-5.657a.5.5 0 0 1 0 .707l-1.414 1.415a.5.5 0 1 1-.707-.708l1.414-1.414a.5.5 0 0 1 .707 0zm-9.193 9.193a.5.5 0 0 1 0 .707L3.05 13.657a.5.5 0 0 1-.707-.707l1.414-1.414a.5.5 0 0 1 .707 0zm9.193 2.121a.5.5 0 0 1-.707 0l-1.414-1.414a.5.5 0 0 1 .707-.707l1.414 1.414a.5.5 0 0 1 0 .707zM4.464 4.465a.5.5 0 0 1-.707 0L2.343 3.05a.5.5 0 1 1 .707-.707l1.414 1.414a.5.5 0 0 1 0 .708z"/></g></symbol>
<symbol id="icon-sun-fill" viewBox="0 0 24 24"><g transform="scale(1.5)" fill="currentColor"><path d="M8 12a4 4 0 1 0 0-8 4 4 0 0 0 0 8zM8 0a.5.5 0 0 1 .5.5v2a.5.5 0 0 1-1 0v-2A.5.5 0 0 1 8 0zm0 13a.5.5 0 0 1 .5.5v2a.5.5 0 0 1-1 0v-2A.5.5 0 0 1 8 13zm8-5a.5.5 0 0 1-.5.5h-2a.5.5 0 0 1 0-1h2a.5.5 0 0 1 .5.5zM3 8a.5.5 0 0 1-.5.5h-2a.5.5 0 0 1 0-1h2A.5.5 0 0 1 3 8zm10.657-5.657a.5.5 0 0 1 0 .707l-1.414 1.415a.5.5 0 1 1-.707-.708l1.414-1.414a.5.5 0 0 1 .707 0zm-9.193 9.193a.5.5 0 0 1 0 .707L3.05 13.657a.5.5 0 0 1-.707-.707l1.414-1.414a.5.5 0 0 1 .707 0zm9.193 2.121a.5.5 0 0 1-.707 0l-1.414-1.414a.5.5 0 0 1 .707-.707l1.414 1.414a.5.5 0 0 1 0 .707zM4.464 4.465a.5.5 0 0 1-.707 0L2.343 3.05a.5.5 0 1 1 .707-.707l1.414 1.414a.5.5 0 0 1 0 .708z"/></g></symbol>
<symbol id="icon-terminal" viewBox="0 0 24 24"><g transform="scale(1.5)" fill="currentColor"><path d="M6 9a.5.5 0 0 1 .5-.5h3a.5.5 0 0 1 0 1h-3A.5.5 0 0 1 6 9zM3.854 4.146a.5.5 0 1 0-.708.708L4.793 6.5 3.146 8.146a.5.5 0 1 0 .708.708l2-2a.5.5 0 0 0 0-.708l-2-2z"/><path d="M2 1a2 2 0 0 0-2 2v10a2 2 0 0 0 2 2h12a2 2 0 0 0 2-2V3a2 2 0 0 0-2-2H2zm12 1a1 1 0 0 1 1 1v10a1 1 0 0 1-1 1H2a1 1 0 0 1-1-1V3a1 1 0 0 1 1-1h12z"/></g></symbol>
<symbol id="icon-tools" viewBox="0 0 24 24"><g transform="scale(1.5)" fill="currentColor"><path d="M1 0 0 1l2.2 3.081a1 1 0 0 0 .815.419h.07a1 1 0 0 1 .708.293l2.675 2.675-2.617 2.654A3.003 3.003 0 0 0 0 13a3 3 0 1 0 5.878-.851l2.654-2.617.968.968-.305.914a1 1 0 0 0 .242 1.023l3.356 3.356a1 1 0 0 0 1.414 0l1.586-1.586a1 1 0 0 0 0-1.414l-3.356-3.356a1 1 0 0 0-1.023-.242L10.5 9.5l-.96-.96 2.68-2.643A3.005 3.005 0 0 0 16 3c0-.269-.035-.53-.102-.777l-2.14 2.141L12 4l-.364-1.757L13.777.102a3 3 0 0 0-3.675 3.68L7.462 6.46 4.793 3.793a1 1 0 0 1-.293-.707v-.071a1 1 0 0 0-.419-.814L1 0zm9.646 10.646a.5.5 0 0 1 .708 0l3 3a.5.5 0 0 1-.708.708l-3-3a.5.5 0 0 1 0-.708zM3 11l.471.242.529.026.287.445.445.287.026.529L5 13l-.242.471-.026.529-.445.287-.287.445-.529.026L3 15l-.471-.242L2 14.732l-.287-.445L1.268 14l-.026-.529L1 13l.242-.471.026-.529.445-.287.287-.445.529-.026L3 11z"/></g></symbol>
<symbol id="icon-translate" viewBox="0 0 24 24"><g transform="scale(1.5)" fill="currentColor"><path d="M4.545 6.714 4.11 8H3l1.862-5h1.284L8 8H6.833l-.435-1.286H4.545zm1.634-.736L5.5 3.956h-.049l-.679 2.022H6.18z"/><path d="M0 2a2 2 0 0 1 2-2h7a2 2 0 0 1 2 2v3h3a2 2 0 0 1 2 2v7a2 2 0 0 1-2 2H7a2 2 0 0 1-2-2v-3H2a2 2 0 0 1-2-2V2zm2-1a1 1 0 0 0-1 1v7a1 1 0 0 0 1 1h7a1 1 0 0 0 1-1V2a1 1 0 0 0-1-1H2zm7.138 9.995c.193.301.402.583.63.846-.748.575-1.673 1.001-2.768 1.292.178.217.451.635.555.867 1.125-.359 2.08-.844 2.886-1.494.777.665 1.739 1.165 2.93 1.472.133-.254.414-.673.629-.89-1.125-.253-2.057-.694-2.82-1.284.681-.747 1.222-1.651 1.621-2.757H14V8h-3v1.047h.765c-.318.844-.74 1.546-1.272 2.13a6.066 6.066 0 0 1-.415-.492 1.988 1.988 0 0 1-.94.31z"/></g></symbol>
<symbol id="icon-trash" viewBox="0 0 24 24"><g transform="scale(1.5)" fill="currentColor"><path d="M5.5 5.5A.5.5 0 0 1 6 6v6a.5.5 0 0 1-1 0V6a.5.5 0 0 1 .5-.5zm2.5 0a.5.5 0 0 1 .5.5v6a.5.5 0 0 1-1 0V6a.5.5 0 0 1 .5-.5zm3 .5a.5.5 0 0 0-1 0v6a.5.5 0 0 0 1 0V6z"/><path fill-rule="evenodd" d="M14.5 3a1 1 0 0 1-1 1H13v9a2 2 0 0 1-2 2H5a2 2 0 0 1-2-2V4h-.5a1 1 0 0 1-1-1V2a1 1 0 0 1 1-1H6a1 1 0 0 1 1-1h2a1 1 0 0 1 1 1h3.5a1 1 0 0 1 1 1v1zM4.118 4 4 4.059V13a1 1 0 0 0 1 1h6a1 1 0 0 0 1-1V4.059L11.882 4H4.118zM2.5 3V2h11v1h-11z"/></g></symbol>
<symbol id="icon-truck" viewBox="0 0 24 24"><g transform="scale(1.5)" fill="currentColor"><path d="M0 3.5A1.5 1.5 0 0 1 1.5 2h9A1.5 1.5 0 0 1 12 3.5V5h1.02a1.5 1.5 0 0 1 1.17.563l1.481 1.85a1.5 1.5 0 0 1 .329.938V10.5a1.5 1.5 0 0 1-1.5 1.5H14a2 2 0 1 1-4 0H5a2 2 0 1 1-3.998-.085A1.5 1.5 0 0 1 0 10.5v-7zm1.294 7.456A1.999 1.999 0 0 1 4.732 11h5.536a2.01 2.01 0 0 1 .732-.732V3.5a.5.5 0 0 0-.5-.5h-9a.5.5 0 0 0-.5.5v7a.5.5 0 0 0 .294.456zM12 10a2 2 0 0 1 1.732 1h.768a.5.5 0 0 0 .5-.5V8.35a.5.5 0 0 0-.11-.312l-1.48-1.85A.5.5 0 0 0 13.02 6H12v4zm-9 1a1 1 0 1 0 0 2 1 1 0 0 0 0-2zm9 0a1 1 0 1 0 0 2 1 1 0 0 0 0-2z"/></g></symbol>
<symbol id="icon-upload" viewBox="0 0 24 24"><g transform="scale(1.5)" fill="currentColor"><path d="M.5 9.9a.5.5 0 0 1 .5.5v2.5a1 1 0 0 0 1 1h12a1 1 0 0 0 1-1v-2.5a.5.5 0 0 1 1 0v2.5a2 2 0 0 1-2 2H2a2 2 0 0 1-2-2v-2.5a.5.5 0 0 1 .5-.5z"/><path d="M7.646 1.146a.5.5 0 0 1 .708 0l3 3a.5.5 0 0 1-.708.708L8.5 2.707V11.5a.5.5 0 0 1-1 0V2.707L5.354 4.854a.5.5 0 1 1-.708-.708l3-3z"/></g></symbol>
<symbol id="icon-wind" viewBox="0 0 24 24"><g transform="scale(1.5)" fill="currentColor"><path d="M12.5 2A2.5 2.5 0 0 0 10 4.5a.5.5 0 0 1-1 0A3.5 3.5 0 1 1 12.5 8H.5a.5.5 0 0 1 0-1h12a2.5 2.5 0 0 0 0-5zm-7 1a1 1 0 0 0-1 1 .5.5 0 0 1-1 0 2 2 0 1 1 2 2h-5a.5.5 0 0 1 0-1h5a1 1 0 0 0 0-2zM0 9.5A.5.5 0 0 1 .5 9h10.042a3 3 0 1 1-3 3 .5.5 0 0 1 1 0 2 2 0 1 0 2-2H.5a.5.5 0 0 1-.5-.5z"/></g></symbol>
<symbol id="icon-window" viewBox="0 0 24 24"><g transform="scale(1.5)" fill="currentColor"><path d="M2.5 4a.5.5 0 1 0 0-1 .5.5 0 0 0 0 1zm2-.5a.5.5 0 1 1-1 0 .5.5 0 0 1 1 0zm1 .5a.5.5 0 1 0 0-1 .5.5 0 0 0 0 1z"/><path d="M2 1a2 2 0 0 0-2 2v10a2 2 0 0 0 2 2h12a2 2 0 0 0 2-2V3a2 2 0 0 0-2-2H2zm13 2v2H1V3a1 1 0 0 1 1-1h12a1 1 0 0 1 1 1zM2 14a1 1 0 0 1-1-1V6h14v7a1 1 0 0 1-1 1H2z"/></g></symbol>
<symbol id="icon-x" viewBox="0 0 24 24"><g transform="scale(1.5)" fill="currentColor"><path d="M4.646 4.646a.5.5 0 0 1 .708 0L8 7.293l2.646-2.647a.5.5 0 0 1 .708.708L8.707 8l2.647 2.646a.5.5 0 0 1-.708.708L8 8.707l-2.646 2.647a.5.5 0 0 1-.708-.708L7.293 8 4.646 5.354a.5.5 0 0 1 0-.708z"/></g></symbol>
<symbol id="icon-xcircle" viewBox="0 0 24 24"><g transform="scale(1.5)" fill="currentColor"><path d="M8 15A7 7 0 1 1 8 1a7 7 0 0 1 0 14zm0 1A8 8 0 1 0 8 0a8 8 0 0 0 0 16z"/><path d="M4.646 4.646a.5.5 0 0 1 .708 0L8 7.293l2.646-2.647a.5.5 0 0 1 .708.708L8.707 8l2.647 2.646a.5.5 0 0 1-.708.708L8 8.707l-2.646 2.647a.5.5 0 0 1-.708-.708L7.293 8 4.646 5.354a.5.5 0 0 1 0-.708z"/></g></symbol>
<symbol id="icon-xlg" viewBox="0 0 24 24"><g transform="scale(1.5)" fill="currentColor"><path d="M1.293 1.293a1 1 0 0 1 1.414 0L8 6.586l5.293-5.293a1 1 0 1 1 1.414 1.414L9.414 8l5.293 5.293a1 1 0 0 1-1.414 1.414L8 9.414l-5.293 5.293a1 1 0 0 1-1.414-1.414L6.586 8 1.293 2.707a1 1 0 0 1 0-1.414z"/></g></symbol>
<symbol id="icon-controller-host" viewBox="0 0 24 24"><g fill="none" stroke="currentColor" stroke-linecap="round" stroke-linejoin="round"><rect x="3" y="3" width="18" height="18" rx="2"/><rect x="7" y="7" width="10" height="10" rx="1"/></g></symbol>
<symbol id="icon-controller-node" viewBox="0 0 24 24"><g fill="none" stroke="currentColor" stroke-linecap="round" stroke-linejoin="round"><path d="M4 8h16v12H4zM7 8V4m5 4V4m5 4V4M5.5 4h3M10.5 4h3M15.5 4h3"/></g></symbol>
<symbol id="icon-product-model" viewBox="0 0 24 24"><g fill="none" stroke="currentColor" stroke-linecap="round" stroke-linejoin="round"><path d="M3 6.5 8 3h13v18H8l-5-3.5z"/><circle cx="8" cy="12" r="1.5"/><path d="M12 8h6m-6 4h6m-6 4h4"/></g></symbol>
<symbol id="icon-controller-system" viewBox="0 0 24 24"><g fill="none" stroke="currentColor" stroke-linecap="round" stroke-linejoin="round"><rect x="9" y="3" width="12" height="12" rx="1.5"/><rect x="3" y="9" width="12" height="12" rx="1.5"/><rect x="6" y="12" width="6" height="6" rx=".5"/></g></symbol>
<symbol id="icon-system-platform" viewBox="0 0 24 24"><g fill="none" stroke="currentColor" stroke-linecap="round" stroke-linejoin="round"><rect x="3" y="4" width="18" height="7" rx="1.5"/><rect x="3" y="13" width="18" height="7" rx="1.5"/><circle cx="7" cy="7.5" r=".75" fill="currentColor"/><circle cx="7" cy="16.5" r=".75" fill="currentColor"/><path d="M11 7.5h6m-6 9h6"/></g></symbol>
<symbol id="icon-controller-console" viewBox="0 0 24 24"><g fill="none" stroke="currentColor" stroke-linecap="round" stroke-linejoin="round"><rect x="3" y="3" width="18" height="18" rx="2"/><path d="M3 8h18M8 11v7m4-7v7m4-7v7"/><circle cx="8" cy="14" r="1" fill="currentColor"/><circle cx="12" cy="16" r="1" fill="currentColor"/><circle cx="16" cy="13" r="1" fill="currentColor"/></g></symbol>
<symbol id="icon-mqtt-broker" viewBox="0 0 24 24"><g fill="none" stroke="currentColor" stroke-linecap="round" stroke-linejoin="round"><rect x="8" y="7" width="8" height="10" rx="1.5"/><path d="M8 10H3m0 0 2-2m-2 2 2 2m11 2h5m0 0-2-2m2 2-2 2M10.5 10h3m-3 4h3"/></g></symbol>
<symbol id="icon-web-interface" viewBox="0 0 24 24"><g fill="none" stroke="currentColor" stroke-linecap="round" stroke-linejoin="round"><rect x="3" y="4" width="18" height="16" rx="2"/><path d="M3 8h18M8 8v12m3-8h7m-7 4h5"/></g></symbol>
<symbol id="icon-lvgl-interface" viewBox="0 0 24 24"><g fill="none" stroke="currentColor" stroke-linecap="round" stroke-linejoin="round"><rect x="3" y="3" width="18" height="18" rx="2"/><path d="M7 8h3m3 0h4M7 13h6m3 0h1" stroke-width="2.5"/><circle cx="11.5" cy="8" r="1.25" fill="currentColor" stroke="none"/><circle cx="14.5" cy="13" r="1.25" fill="currentColor" stroke="none"/><circle cx="9" cy="17" r="1"/><circle cx="15" cy="17" r="1"/></g></symbol>
<symbol id="icon-modifier-plus" viewBox="0 0 24 24"><path fill="currentColor" d="M12 12h12v12H12z"/><path stroke="white" stroke-width="1.5" stroke-linecap="round" d="M15 18h6m-3-3v6"/></symbol>
<symbol id="icon-modifier-list" viewBox="0 0 24 24"><path stroke="currentColor" stroke-width="1.5" stroke-linecap="round" d="M13.5 15h9m-9 3h9m-9 3h9"/></symbol>
<symbol id="icon-modifier-dot" viewBox="0 0 24 24"><circle cx="19" cy="5" r="3" fill="currentColor"/></symbol></defs>
<g transform="translate(0 0)"><use href="#icon-archive" x="8" y="6" width="24" height="24"/><text x="8" y="46">archive</text></g>
<g transform="translate(144 0)"><use href="#icon-arrow-clockwise" x="8" y="6" width="24" height="24"/><text x="8" y="46">arrow-clockwise</text></g>
<g transform="translate(288 0)"><use href="#icon-arrow-counterclockwise" x="8" y="6" width="24" height="24"/><text x="8" y="46">arrow-counterclockwise</text></g>
<g transform="translate(432 0)"><use href="#icon-arrow-down" x="8" y="6" width="24" height="24"/><text x="8" y="46">arrow-down</text></g>
<g transform="translate(576 0)"><use href="#icon-arrow-down-circle" x="8" y="6" width="24" height="24"/><text x="8" y="46">arrow-down-circle</text></g>
<g transform="translate(720 0)"><use href="#icon-arrow-left" x="8" y="6" width="24" height="24"/><text x="8" y="46">arrow-left</text></g>
<g transform="translate(864 0)"><use href="#icon-arrow-repeat" x="8" y="6" width="24" height="24"/><text x="8" y="46">arrow-repeat</text></g>
<g transform="translate(1008 0)"><use href="#icon-arrow-right" x="8" y="6" width="24" height="24"/><text x="8" y="46">arrow-right</text></g>
<g transform="translate(0 58)"><use href="#icon-arrow-up-circle" x="8" y="6" width="24" height="24"/><text x="8" y="46">arrow-up-circle</text></g>
<g transform="translate(144 58)"><use href="#icon-arrows-collapse" x="8" y="6" width="24" height="24"/><text x="8" y="46">arrows-collapse</text></g>
<g transform="translate(288 58)"><use href="#icon-arrows-expand" x="8" y="6" width="24" height="24"/><text x="8" y="46">arrows-expand</text></g>
<g transform="translate(432 58)"><use href="#icon-bag" x="8" y="6" width="24" height="24"/><text x="8" y="46">bag</text></g>
<g transform="translate(576 58)"><use href="#icon-bell" x="8" y="6" width="24" height="24"/><text x="8" y="46">bell</text></g>
<g transform="translate(720 58)"><use href="#icon-bell-fill" x="8" y="6" width="24" height="24"/><text x="8" y="46">bell-fill</text></g>
<g transform="translate(864 58)"><use href="#icon-book" x="8" y="6" width="24" height="24"/><text x="8" y="46">book</text></g>
<g transform="translate(1008 58)"><use href="#icon-box-arrow-right" x="8" y="6" width="24" height="24"/><text x="8" y="46">box-arrow-right</text></g>
<g transform="translate(0 116)"><use href="#icon-box-arrow-up-right" x="8" y="6" width="24" height="24"/><text x="8" y="46">box-arrow-up-right</text></g>
<g transform="translate(144 116)"><use href="#icon-box-seam" x="8" y="6" width="24" height="24"/><text x="8" y="46">box-seam</text></g>
<g transform="translate(288 116)"><use href="#icon-broadcast" x="8" y="6" width="24" height="24"/><text x="8" y="46">broadcast</text></g>
<g transform="translate(432 116)"><use href="#icon-brush" x="8" y="6" width="24" height="24"/><text x="8" y="46">brush</text></g>
<g transform="translate(576 116)"><use href="#icon-building" x="8" y="6" width="24" height="24"/><text x="8" y="46">building</text></g>
<g transform="translate(720 116)"><use href="#icon-calendar3" x="8" y="6" width="24" height="24"/><text x="8" y="46">calendar3</text></g>
<g transform="translate(864 116)"><use href="#icon-camera" x="8" y="6" width="24" height="24"/><text x="8" y="46">camera</text></g>
<g transform="translate(1008 116)"><use href="#icon-camera-video" x="8" y="6" width="24" height="24"/><text x="8" y="46">camera-video</text></g>
<g transform="translate(0 174)"><use href="#icon-cart" x="8" y="6" width="24" height="24"/><text x="8" y="46">cart</text></g>
<g transform="translate(144 174)"><use href="#icon-chat-dots-fill" x="8" y="6" width="24" height="24"/><text x="8" y="46">chat-dots-fill</text></g>
<g transform="translate(288 174)"><use href="#icon-check" x="8" y="6" width="24" height="24"/><text x="8" y="46">check</text></g>
<g transform="translate(432 174)"><use href="#icon-check2" x="8" y="6" width="24" height="24"/><text x="8" y="46">check2</text></g>
<g transform="translate(576 174)"><use href="#icon-check2-square" x="8" y="6" width="24" height="24"/><text x="8" y="46">check2-square</text></g>
<g transform="translate(720 174)"><use href="#icon-check-circle" x="8" y="6" width="24" height="24"/><text x="8" y="46">check-circle</text></g>
<g transform="translate(864 174)"><use href="#icon-check-circle-fill" x="8" y="6" width="24" height="24"/><text x="8" y="46">check-circle-fill</text></g>
<g transform="translate(1008 174)"><use href="#icon-chevron-down" x="8" y="6" width="24" height="24"/><text x="8" y="46">chevron-down</text></g>
<g transform="translate(0 232)"><use href="#icon-chevron-left" x="8" y="6" width="24" height="24"/><text x="8" y="46">chevron-left</text></g>
<g transform="translate(144 232)"><use href="#icon-chevron-right" x="8" y="6" width="24" height="24"/><text x="8" y="46">chevron-right</text></g>
<g transform="translate(288 232)"><use href="#icon-clipboard" x="8" y="6" width="24" height="24"/><text x="8" y="46">clipboard</text></g>
<g transform="translate(432 232)"><use href="#icon-clipboard-check" x="8" y="6" width="24" height="24"/><text x="8" y="46">clipboard-check</text></g>
<g transform="translate(576 232)"><use href="#icon-clipboard-plus" x="8" y="6" width="24" height="24"/><text x="8" y="46">clipboard-plus</text></g>
<g transform="translate(720 232)"><use href="#icon-clock" x="8" y="6" width="24" height="24"/><text x="8" y="46">clock</text></g>
<g transform="translate(864 232)"><use href="#icon-clock-history" x="8" y="6" width="24" height="24"/><text x="8" y="46">clock-history</text></g>
<g transform="translate(1008 232)"><use href="#icon-cloud" x="8" y="6" width="24" height="24"/><text x="8" y="46">cloud</text></g>
<g transform="translate(0 290)"><use href="#icon-cloud-download" x="8" y="6" width="24" height="24"/><text x="8" y="46">cloud-download</text></g>
<g transform="translate(144 290)"><use href="#icon-cloud-slash" x="8" y="6" width="24" height="24"/><text x="8" y="46">cloud-slash</text></g>
<g transform="translate(288 290)"><use href="#icon-cloud-upload" x="8" y="6" width="24" height="24"/><text x="8" y="46">cloud-upload</text></g>
<g transform="translate(432 290)"><use href="#icon-cpu" x="8" y="6" width="24" height="24"/><text x="8" y="46">cpu</text></g>
<g transform="translate(576 290)"><use href="#icon-credit-card" x="8" y="6" width="24" height="24"/><text x="8" y="46">credit-card</text></g>
<g transform="translate(720 290)"><use href="#icon-diagram3" x="8" y="6" width="24" height="24"/><text x="8" y="46">diagram3</text></g>
<g transform="translate(864 290)"><use href="#icon-diagram3-fill" x="8" y="6" width="24" height="24"/><text x="8" y="46">diagram3-fill</text></g>
<g transform="translate(1008 290)"><use href="#icon-display" x="8" y="6" width="24" height="24"/><text x="8" y="46">display</text></g>
<g transform="translate(0 348)"><use href="#icon-download" x="8" y="6" width="24" height="24"/><text x="8" y="46">download</text></g>
<g transform="translate(144 348)"><use href="#icon-droplet-fill" x="8" y="6" width="24" height="24"/><text x="8" y="46">droplet-fill</text></g>
<g transform="translate(288 348)"><use href="#icon-envelope" x="8" y="6" width="24" height="24"/><text x="8" y="46">envelope</text></g>
<g transform="translate(432 348)"><use href="#icon-exclamation-octagon" x="8" y="6" width="24" height="24"/><text x="8" y="46">exclamation-octagon</text></g>
<g transform="translate(576 348)"><use href="#icon-exclamation-triangle" x="8" y="6" width="24" height="24"/><text x="8" y="46">exclamation-triangle</text></g>
<g transform="translate(720 348)"><use href="#icon-eye" x="8" y="6" width="24" height="24"/><text x="8" y="46">eye</text></g>
<g transform="translate(864 348)"><use href="#icon-eye-slash" x="8" y="6" width="24" height="24"/><text x="8" y="46">eye-slash</text></g>
<g transform="translate(1008 348)"><use href="#icon-file-earmark" x="8" y="6" width="24" height="24"/><text x="8" y="46">file-earmark</text></g>
<g transform="translate(0 406)"><use href="#icon-file-earmark-code" x="8" y="6" width="24" height="24"/><text x="8" y="46">file-earmark-code</text></g>
<g transform="translate(144 406)"><use href="#icon-file-earmark-text" x="8" y="6" width="24" height="24"/><text x="8" y="46">file-earmark-text</text></g>
<g transform="translate(288 406)"><use href="#icon-files" x="8" y="6" width="24" height="24"/><text x="8" y="46">files</text></g>
<g transform="translate(432 406)"><use href="#icon-folder" x="8" y="6" width="24" height="24"/><text x="8" y="46">folder</text></g>
<g transform="translate(576 406)"><use href="#icon-folder2-open" x="8" y="6" width="24" height="24"/><text x="8" y="46">folder2-open</text></g>
<g transform="translate(720 406)"><use href="#icon-folder-fill" x="8" y="6" width="24" height="24"/><text x="8" y="46">folder-fill</text></g>
<g transform="translate(864 406)"><use href="#icon-gear" x="8" y="6" width="24" height="24"/><text x="8" y="46">gear</text></g>
<g transform="translate(1008 406)"><use href="#icon-gear-wide-connected" x="8" y="6" width="24" height="24"/><text x="8" y="46">gear-wide-connected</text></g>
<g transform="translate(0 464)"><use href="#icon-geo-alt" x="8" y="6" width="24" height="24"/><text x="8" y="46">geo-alt</text></g>
<g transform="translate(144 464)"><use href="#icon-graph-up" x="8" y="6" width="24" height="24"/><text x="8" y="46">graph-up</text></g>
<g transform="translate(288 464)"><use href="#icon-grid" x="8" y="6" width="24" height="24"/><text x="8" y="46">grid</text></g>
<g transform="translate(432 464)"><use href="#icon-hdd-network" x="8" y="6" width="24" height="24"/><text x="8" y="46">hdd-network</text></g>
<g transform="translate(576 464)"><use href="#icon-hdd-stack" x="8" y="6" width="24" height="24"/><text x="8" y="46">hdd-stack</text></g>
<g transform="translate(720 464)"><use href="#icon-headphones" x="8" y="6" width="24" height="24"/><text x="8" y="46">headphones</text></g>
<g transform="translate(864 464)"><use href="#icon-house-door" x="8" y="6" width="24" height="24"/><text x="8" y="46">house-door</text></g>
<g transform="translate(1008 464)"><use href="#icon-house-door-fill" x="8" y="6" width="24" height="24"/><text x="8" y="46">house-door-fill</text></g>
<g transform="translate(0 522)"><use href="#icon-image" x="8" y="6" width="24" height="24"/><text x="8" y="46">image</text></g>
<g transform="translate(144 522)"><use href="#icon-info-circle" x="8" y="6" width="24" height="24"/><text x="8" y="46">info-circle</text></g>
<g transform="translate(288 522)"><use href="#icon-info-circle-fill" x="8" y="6" width="24" height="24"/><text x="8" y="46">info-circle-fill</text></g>
<g transform="translate(432 522)"><use href="#icon-journal-text" x="8" y="6" width="24" height="24"/><text x="8" y="46">journal-text</text></g>
<g transform="translate(576 522)"><use href="#icon-journals" x="8" y="6" width="24" height="24"/><text x="8" y="46">journals</text></g>
<g transform="translate(720 522)"><use href="#icon-key" x="8" y="6" width="24" height="24"/><text x="8" y="46">key</text></g>
<g transform="translate(864 522)"><use href="#icon-layers" x="8" y="6" width="24" height="24"/><text x="8" y="46">layers</text></g>
<g transform="translate(1008 522)"><use href="#icon-layout-three-columns" x="8" y="6" width="24" height="24"/><text x="8" y="46">layout-three-columns</text></g>
<g transform="translate(0 580)"><use href="#icon-lightbulb" x="8" y="6" width="24" height="24"/><text x="8" y="46">lightbulb</text></g>
<g transform="translate(144 580)"><use href="#icon-link45deg" x="8" y="6" width="24" height="24"/><text x="8" y="46">link45deg</text></g>
<g transform="translate(288 580)"><use href="#icon-list" x="8" y="6" width="24" height="24"/><text x="8" y="46">list</text></g>
<g transform="translate(432 580)"><use href="#icon-list-task" x="8" y="6" width="24" height="24"/><text x="8" y="46">list-task</text></g>
<g transform="translate(576 580)"><use href="#icon-list-ul" x="8" y="6" width="24" height="24"/><text x="8" y="46">list-ul</text></g>
<g transform="translate(720 580)"><use href="#icon-lock" x="8" y="6" width="24" height="24"/><text x="8" y="46">lock</text></g>
<g transform="translate(864 580)"><use href="#icon-lock-fill" x="8" y="6" width="24" height="24"/><text x="8" y="46">lock-fill</text></g>
<g transform="translate(1008 580)"><use href="#icon-moon" x="8" y="6" width="24" height="24"/><text x="8" y="46">moon</text></g>
<g transform="translate(0 638)"><use href="#icon-pause-circle" x="8" y="6" width="24" height="24"/><text x="8" y="46">pause-circle</text></g>
<g transform="translate(144 638)"><use href="#icon-pause-fill" x="8" y="6" width="24" height="24"/><text x="8" y="46">pause-fill</text></g>
<g transform="translate(288 638)"><use href="#icon-pencil" x="8" y="6" width="24" height="24"/><text x="8" y="46">pencil</text></g>
<g transform="translate(432 638)"><use href="#icon-pencil-square" x="8" y="6" width="24" height="24"/><text x="8" y="46">pencil-square</text></g>
<g transform="translate(576 638)"><use href="#icon-people" x="8" y="6" width="24" height="24"/><text x="8" y="46">people</text></g>
<g transform="translate(720 638)"><use href="#icon-person" x="8" y="6" width="24" height="24"/><text x="8" y="46">person</text></g>
<g transform="translate(864 638)"><use href="#icon-person-badge" x="8" y="6" width="24" height="24"/><text x="8" y="46">person-badge</text></g>
<g transform="translate(1008 638)"><use href="#icon-person-dash" x="8" y="6" width="24" height="24"/><text x="8" y="46">person-dash</text></g>
<g transform="translate(0 696)"><use href="#icon-person-fill" x="8" y="6" width="24" height="24"/><text x="8" y="46">person-fill</text></g>
<g transform="translate(144 696)"><use href="#icon-person-plus" x="8" y="6" width="24" height="24"/><text x="8" y="46">person-plus</text></g>
<g transform="translate(288 696)"><use href="#icon-phone" x="8" y="6" width="24" height="24"/><text x="8" y="46">phone</text></g>
<g transform="translate(432 696)"><use href="#icon-play-circle" x="8" y="6" width="24" height="24"/><text x="8" y="46">play-circle</text></g>
<g transform="translate(576 696)"><use href="#icon-play-fill" x="8" y="6" width="24" height="24"/><text x="8" y="46">play-fill</text></g>
<g transform="translate(720 696)"><use href="#icon-power" x="8" y="6" width="24" height="24"/><text x="8" y="46">power</text></g>
<g transform="translate(864 696)"><use href="#icon-save" x="8" y="6" width="24" height="24"/><text x="8" y="46">save</text></g>
<g transform="translate(1008 696)"><use href="#icon-search" x="8" y="6" width="24" height="24"/><text x="8" y="46">search</text></g>
<g transform="translate(0 754)"><use href="#icon-share" x="8" y="6" width="24" height="24"/><text x="8" y="46">share</text></g>
<g transform="translate(144 754)"><use href="#icon-shield-check" x="8" y="6" width="24" height="24"/><text x="8" y="46">shield-check</text></g>
<g transform="translate(288 754)"><use href="#icon-shield-lock" x="8" y="6" width="24" height="24"/><text x="8" y="46">shield-lock</text></g>
<g transform="translate(432 754)"><use href="#icon-slash-circle" x="8" y="6" width="24" height="24"/><text x="8" y="46">slash-circle</text></g>
<g transform="translate(576 754)"><use href="#icon-sliders" x="8" y="6" width="24" height="24"/><text x="8" y="46">sliders</text></g>
<g transform="translate(720 754)"><use href="#icon-snow" x="8" y="6" width="24" height="24"/><text x="8" y="46">snow</text></g>
<g transform="translate(864 754)"><use href="#icon-speedometer2" x="8" y="6" width="24" height="24"/><text x="8" y="46">speedometer2</text></g>
<g transform="translate(1008 754)"><use href="#icon-stars" x="8" y="6" width="24" height="24"/><text x="8" y="46">stars</text></g>
<g transform="translate(0 812)"><use href="#icon-stop-fill" x="8" y="6" width="24" height="24"/><text x="8" y="46">stop-fill</text></g>
<g transform="translate(144 812)"><use href="#icon-sun" x="8" y="6" width="24" height="24"/><text x="8" y="46">sun</text></g>
<g transform="translate(288 812)"><use href="#icon-sun-fill" x="8" y="6" width="24" height="24"/><text x="8" y="46">sun-fill</text></g>
<g transform="translate(432 812)"><use href="#icon-terminal" x="8" y="6" width="24" height="24"/><text x="8" y="46">terminal</text></g>
<g transform="translate(576 812)"><use href="#icon-tools" x="8" y="6" width="24" height="24"/><text x="8" y="46">tools</text></g>
<g transform="translate(720 812)"><use href="#icon-translate" x="8" y="6" width="24" height="24"/><text x="8" y="46">translate</text></g>
<g transform="translate(864 812)"><use href="#icon-trash" x="8" y="6" width="24" height="24"/><text x="8" y="46">trash</text></g>
<g transform="translate(1008 812)"><use href="#icon-truck" x="8" y="6" width="24" height="24"/><text x="8" y="46">truck</text></g>
<g transform="translate(0 870)"><use href="#icon-upload" x="8" y="6" width="24" height="24"/><text x="8" y="46">upload</text></g>
<g transform="translate(144 870)"><use href="#icon-wind" x="8" y="6" width="24" height="24"/><text x="8" y="46">wind</text></g>
<g transform="translate(288 870)"><use href="#icon-window" x="8" y="6" width="24" height="24"/><text x="8" y="46">window</text></g>
<g transform="translate(432 870)"><use href="#icon-x" x="8" y="6" width="24" height="24"/><text x="8" y="46">x</text></g>
<g transform="translate(576 870)"><use href="#icon-xcircle" x="8" y="6" width="24" height="24"/><text x="8" y="46">xcircle</text></g>
<g transform="translate(720 870)"><use href="#icon-xlg" x="8" y="6" width="24" height="24"/><text x="8" y="46">xlg</text></g>
<g transform="translate(864 870)"><use href="#icon-controller-host" x="8" y="6" width="24" height="24"/><text x="8" y="46">controller-host</text></g>
<g transform="translate(1008 870)"><use href="#icon-controller-node" x="8" y="6" width="24" height="24"/><text x="8" y="46">controller-node</text></g>
<g transform="translate(0 928)"><use href="#icon-product-model" x="8" y="6" width="24" height="24"/><text x="8" y="46">product-model</text></g>
<g transform="translate(144 928)"><use href="#icon-controller-system" x="8" y="6" width="24" height="24"/><text x="8" y="46">controller-system</text></g>
<g transform="translate(288 928)"><use href="#icon-system-platform" x="8" y="6" width="24" height="24"/><text x="8" y="46">system-platform</text></g>
<g transform="translate(432 928)"><use href="#icon-controller-console" x="8" y="6" width="24" height="24"/><text x="8" y="46">controller-console</text></g>
<g transform="translate(576 928)"><use href="#icon-mqtt-broker" x="8" y="6" width="24" height="24"/><text x="8" y="46">mqtt-broker</text></g>
<g transform="translate(720 928)"><use href="#icon-web-interface" x="8" y="6" width="24" height="24"/><text x="8" y="46">web-interface</text></g>
<g transform="translate(864 928)"><use href="#icon-lvgl-interface" x="8" y="6" width="24" height="24"/><text x="8" y="46">lvgl-interface</text></g>
<g transform="translate(0 986)"><rect class="rule" width="1152" height="100"/><text x="12" y="20">组合规则：基础 symbol + modifier（运行时复用同一主体）</text><use href="#icon-controller-host" x="12" y="34" width="36" height="36"/><use href="#icon-modifier-plus" x="12" y="34" width="36" height="36"/><use href="#icon-controller-host" x="72" y="34" width="36" height="36"/><use href="#icon-modifier-list" x="72" y="34" width="36" height="36"/><use href="#icon-bell" x="132" y="34" width="36" height="36"/><use href="#icon-modifier-dot" x="132" y="34" width="36" height="36"/></g>
</svg>
